<svg width="64" height="64" viewBox="0 0 64 64" fill="none" xmlns="http://www.w3.org/2000/svg">
<circle cx="32" cy="32" r="32" fill="white"/>
<path d="M23.904 40.56C26.976 37.904 29.392 35.728 31.152 34.032C32.944 32.304 34.432 30.512 35.616 28.656C36.8 26.8 37.392 24.944 37.392 23.088C37.392 21.168 36.928 19.664 36 18.576C35.104 17.488 33.68 16.944 31.728 16.944C29.84 16.944 28.368 17.552 27.312 18.768C26.288 19.952 25.744 21.552 25.68 23.568H20.4C20.496 19.92 21.584 17.136 23.664 15.216C25.776 13.264 28.448 12.288 31.68 12.288C35.168 12.288 37.888 13.248 39.84 15.168C41.824 17.088 42.816 19.648 42.816 22.848C42.816 25.152 42.224 27.376 41.04 29.52C39.888 31.632 38.496 33.536 36.864 35.232C35.264 36.896 33.216 38.832 30.72 41.04L28.56 42.96H43.776V47.52H20.448V43.536L23.904 40.56Z" fill="black"/>
</svg>
