<svg width="64" height="64" viewBox="0 0 64 64" fill="none" xmlns="http://www.w3.org/2000/svg">
<circle cx="32" cy="32" r="32" fill="white"/>
<path d="M19.784 21.648C19.976 18.672 21.112 16.352 23.192 14.688C25.304 13.024 27.992 12.192 31.256 12.192C33.496 12.192 35.432 12.592 37.064 13.392C38.696 14.192 39.928 15.28 40.76 16.656C41.592 18.032 42.008 19.584 42.008 21.312C42.008 23.296 41.48 24.992 40.424 26.4C39.368 27.808 38.104 28.752 36.632 29.232V29.424C38.52 30 39.992 31.056 41.048 32.592C42.104 34.096 42.632 36.032 42.632 38.4C42.632 40.288 42.2 41.968 41.336 43.44C40.472 44.912 39.192 46.08 37.496 46.944C35.8 47.776 33.768 48.192 31.4 48.192C27.944 48.192 25.096 47.312 22.856 45.552C20.648 43.76 19.464 41.2 19.304 37.872H24.584C24.712 39.568 25.368 40.96 26.552 42.048C27.736 43.104 29.336 43.632 31.352 43.632C33.304 43.632 34.808 43.104 35.864 42.048C36.92 40.96 37.448 39.568 37.448 37.872C37.448 35.632 36.728 34.048 35.288 33.12C33.88 32.16 31.704 31.68 28.76 31.68H27.512V27.168H28.808C31.4 27.136 33.368 26.704 34.712 25.872C36.088 25.04 36.776 23.728 36.776 21.936C36.776 20.4 36.28 19.184 35.288 18.288C34.296 17.36 32.888 16.896 31.064 16.896C29.272 16.896 27.88 17.36 26.888 18.288C25.896 19.184 25.304 20.304 25.112 21.648H19.784Z" fill="black"/>
</svg>
