<svg width="427" height="295" viewBox="0 0 427 295" fill="none" xmlns="http://www.w3.org/2000/svg">
<g clip-path="url(#clip0_172_449)">
<path d="M12.7701 291.01C12.7701 291.353 12.9423 291.629 13.1566 291.629H97.2544C97.4677 291.629 97.641 291.353 97.641 291.01C97.641 290.666 97.4688 290.39 97.2544 290.39H13.1566C12.9423 290.39 12.7701 290.666 12.7701 291.01Z" fill="#F2F2F2"/>
<path d="M60.4234 160.062L69.3679 159.817L65.2268 148.322L57.9671 150.925L60.4234 160.062Z" fill="#ED9DA0"/>
<path d="M62.5204 152.361C57.8399 152.361 54.0456 148.574 54.0456 143.902C54.0456 139.23 57.8399 135.443 62.5204 135.443C67.2009 135.443 70.9952 139.23 70.9952 143.902C70.9952 148.574 67.2009 152.361 62.5204 152.361Z" fill="#ED9DA0"/>
<path d="M54.389 275.913H61.028V285.315H54.389V275.913Z" fill="#ED9DA0"/>
<path d="M60.288 290.703C59.1513 290.809 53.4714 291.254 53.1899 289.953C53.0381 289.082 53.099 288.187 53.3674 287.345C53.915 281.92 54.1187 281.863 54.2386 281.827C54.4316 281.769 54.9947 282.035 55.9128 282.628L55.9704 282.664L55.981 282.732C55.9965 282.815 56.4033 284.807 58.327 284.502C59.6466 284.294 60.0742 284.002 60.2096 283.863C60.0678 283.801 59.9466 283.7 59.8604 283.572C59.7883 283.444 59.7444 283.302 59.7318 283.155C59.7192 283.009 59.7381 282.862 59.7873 282.723C60.0572 281.931 60.3993 281.165 60.8094 280.435L60.8931 280.284L68.4397 285.365L73.0969 286.692C73.27 286.74 73.4298 286.827 73.5644 286.946C73.6989 287.065 73.8047 287.213 73.8738 287.379C73.9696 287.608 73.992 287.861 73.9379 288.104C73.8837 288.346 73.7557 288.566 73.5714 288.732C72.7264 289.492 71.0421 290.789 69.2794 290.955C68.8102 290.997 68.1896 291.018 67.4906 291.018C64.5752 291.018 60.3248 290.716 60.2928 290.711L60.288 290.703Z" fill="#0F143B"/>
<path d="M28.1594 273.328L34.6723 274.626L32.8261 283.85L26.3132 282.551L28.1594 273.328Z" fill="#ED9DA0"/>
<path d="M31.0606 288.985C29.9286 288.865 24.2701 288.186 24.244 286.861C24.2672 285.976 24.5032 285.11 24.9323 284.336C26.5318 279.125 26.7419 279.104 26.8725 279.094C27.0756 279.078 27.5768 279.448 28.359 280.208L28.4059 280.254V280.322C28.4059 280.41 28.4112 282.441 30.3562 282.519C31.6892 282.572 32.1658 282.373 32.329 282.259C32.2025 282.169 32.1033 282.047 32.0421 281.905C31.9949 281.765 31.9788 281.617 31.995 281.47C32.0112 281.324 32.0593 281.183 32.136 281.057C32.5566 280.333 33.0418 279.648 33.5857 279.011L33.695 278.88L40.093 285.341L44.4011 287.558C44.561 287.641 44.7003 287.758 44.8086 287.901C44.917 288.044 44.9916 288.21 45.027 288.386C45.0759 288.63 45.048 288.883 44.9472 289.11C44.8464 289.338 44.6776 289.528 44.464 289.656C43.4835 290.234 41.58 291.182 39.8168 290.994C39.3477 290.941 38.7372 290.838 38.0542 290.703C35.1964 290.13 31.0867 289.005 31.0552 288.995L31.0606 288.985Z" fill="#0F143B"/>
<path d="M70.9952 200.147L39.867 196.784L25.5428 275.071L35.5072 276.329L52.3165 224.771L51.4848 277.803H62.2773L70.9952 200.147Z" fill="#2492CD"/>
<path d="M68.9366 154.841L52.6946 152.925L36.6461 208.061C36.6461 208.061 44.7674 206.38 49.7221 211.851C54.6769 217.322 71.7331 211.105 71.7331 211.105L68.9366 154.836V154.841Z" fill="#DFDFE0"/>
<path d="M86.2919 213.219C86.7611 215.53 85.9005 217.644 84.3677 217.935C82.8348 218.226 81.2123 216.592 80.7421 214.275C80.5408 213.354 80.5731 212.396 80.8359 211.49L78.9741 201.667L83.7881 200.907L85.113 210.673C85.7091 211.412 86.1122 212.286 86.286 213.219H86.2919Z" fill="#ED9DA0"/>
<path d="M63.3905 154.481L70.0242 155.132C71.5881 155.464 73.021 156.244 74.1473 157.377C75.2735 158.509 76.0442 159.945 76.3647 161.509L86.0152 208.346H79.4907L63.3857 154.476L63.3905 154.481Z" fill="#DFDFE0"/>
<path d="M57.7789 149.171L58.6133 148.791C58.2641 147.219 57.9458 145.449 58.8324 144.108C59.3224 143.368 60.1574 142.785 60.2613 141.905C60.3498 141.177 59.8881 140.432 60.0891 139.723C60.3024 138.978 61.1373 138.636 61.8726 138.385C63.0048 137.944 64.1964 137.672 65.4086 137.579C66.0158 137.539 66.6242 137.635 67.1897 137.859C67.7553 138.084 68.2638 138.431 68.6785 138.875C68.9086 139.169 69.1094 139.485 69.2783 139.818C69.8883 140.921 70.9418 143.055 70.9418 143.055C70.9418 143.055 70.9003 142.566 70.9056 141.592C71.2908 140.771 71.5662 139.903 71.7245 139.01C71.7537 137.91 71.408 136.833 70.744 135.954C70.0474 134.923 69.1235 134.065 68.0433 133.445C66.9631 132.825 65.7551 132.46 64.5118 132.378C62.0293 132.264 59.7554 132.435 58.4987 134.575C58.2895 134.991 58.047 135.39 57.7736 135.767C57.226 136.433 56.3969 136.787 55.724 137.324C54.9478 137.974 54.3258 138.788 53.9028 139.707C53.4798 140.626 53.2663 141.627 53.2778 142.639C53.3845 144.555 54.0861 146.376 54.7851 148.162C55.3849 149.705 56.6208 151.27 58.1857 151.811C58.0188 150.984 57.8573 150.155 57.6904 149.328" fill="#0F143B"/>
<path d="M63.1933 155.486L63.0941 155.621L60.0795 159.734L56.6011 164.487L55.819 165.554L52.9505 169.474C52.1916 170.34 51.38 171.159 50.5203 171.926L50.4888 171.952C49.9466 172.441 49.3308 172.963 48.6531 173.483C44.8196 176.429 39.0518 179.308 34.0442 175.44C27.6867 170.526 41.6328 159.573 48.731 154.575C49.8807 153.765 51.2043 153.234 52.5962 153.025C53.9881 152.816 55.4096 152.935 56.7472 153.373L63.1933 155.486Z" fill="#DFDFE0"/>
<path d="M63.0312 161.264C62.387 161.689 61.663 161.979 60.9033 162.116C60.7311 162.147 60.5589 162.173 60.3818 162.189L56.7728 164.85L55.8184 165.553L52.4386 168.046L49.6278 164.069L54.8171 160.649L57.9879 158.556C58.459 157.738 59.1255 157.05 59.9281 156.552C60.8088 155.965 61.8374 155.639 62.8957 155.609H62.9011C62.9656 155.608 63.0302 155.611 63.0941 155.62C63.4798 155.611 63.8618 155.696 64.2078 155.866C64.5538 156.037 64.8534 156.288 65.0812 156.599C65.9418 157.902 65.0183 159.989 63.0312 161.264Z" fill="#ED9DA0"/>
<path d="M57.3934 166.184L54.7441 160.479L43.0042 164.852L48.6526 173.483L57.3934 166.184Z" fill="#DFDFE0"/>
<path d="M184.101 41.2667C185.12 39.2182 186.749 37.5179 187.746 35.4583C188.742 33.3987 188.936 30.6424 187.276 29.066C185.866 27.7276 183.658 27.7089 181.973 26.7393C177.678 24.2693 177.684 16.4247 172.774 15.7467C170.387 15.4173 168.227 17.2044 166.783 19.131C165.34 21.0575 164.191 23.3061 162.19 24.6467C159.924 26.1645 156.996 26.23 154.48 27.2842C149.657 29.3066 147.128 34.5019 145.014 39.2779C143.652 42.3545 142.259 45.6727 142.891 48.9766C141.518 49.8281 142.13 52.1246 143.501 52.9814C144.872 53.8383 146.593 53.8196 148.168 54.1906C151.478 54.9708 154.187 57.6004 155.473 60.743C156.474 63.1911 156.679 65.8814 156.872 68.52L157.877 82.2539C158.027 84.2906 158.222 86.4551 159.464 88.0777C160.706 89.7004 163.396 90.3806 164.792 88.8877C166.124 87.4609 165.525 85.2028 165.498 83.2512C165.471 81.2997 167.238 78.8697 168.904 79.8904L169.491 78.5599C173.297 77.1996 176.63 74.7732 179.091 71.5711C181.551 68.3691 183.035 64.5272 183.365 60.5051C183.791 54.0272 181.208 47.0809 184.101 41.2667Z" fill="#E6E6E6"/>
<path d="M187.989 82.3475C188.357 82.0016 188.618 81.558 188.741 81.069C188.865 80.58 188.845 80.0659 188.686 79.5875C188.526 79.1091 188.232 78.6862 187.84 78.3688C187.447 78.0514 186.972 77.8527 186.47 77.7961L186.476 78.0159C185.76 78.4336 184.943 78.6479 184.113 78.636C183.287 78.6229 182.464 78.7529 181.682 79.0202C181.293 79.1613 180.956 79.4166 180.716 79.7525C180.475 80.0884 180.342 80.4892 180.334 80.902C180.379 81.2182 180.5 81.5188 180.687 81.7782C180.874 82.0376 181.121 82.2482 181.406 82.3922C181.98 82.6744 182.597 82.8612 183.231 82.9452C184.867 83.2522 186.78 83.4859 187.989 82.3475Z" fill="#E6E6E6"/>
<path d="M219.867 41.3752C220.551 40.9103 221.132 40.3095 221.573 39.6104C221.787 39.2567 221.888 38.8467 221.864 38.4342C221.841 38.0217 221.693 37.626 221.439 37.2991C220.924 36.8527 220.261 36.6135 219.579 36.628C217.726 36.4899 215.864 36.7091 214.094 37.2736L219.546 42.0942L219.867 41.3752Z" fill="#E6E6E6"/>
<path d="M210.779 45.554C211.513 46.363 211.279 47.6184 211.071 48.6903C210.863 49.7621 210.836 51.1017 211.76 51.6865C212.56 52.1932 213.684 51.7797 214.27 51.0357C214.793 50.2419 215.112 49.3313 215.198 48.3848C215.486 47.0093 215.616 45.6055 215.586 44.2006C215.551 42.7848 215.051 41.4195 214.162 40.3156C213.532 39.5979 212.692 39.0952 211.76 38.878C210.829 38.6608 209.853 38.7399 208.969 39.1043L209.813 39.0628C209.199 39.8494 208.734 40.7407 208.44 41.6935C208.299 42.172 208.289 42.6795 208.41 43.1633C208.532 43.647 208.782 44.0894 209.133 44.4444C209.635 44.8813 210.333 45.0633 210.779 45.554Z" fill="#E6E6E6"/>
<path d="M252.199 31.9834L252.349 31.522C251.721 31.8845 251.237 32.4511 250.978 33.1272C250.719 33.8032 250.7 34.5475 250.925 35.2357C251.408 34.8556 251.78 34.3539 252.004 33.7822C252.228 33.2105 252.295 32.5896 252.199 31.9834Z" fill="#E6E6E6"/>
<path d="M244.039 38.5876C244.838 38.1358 245.52 37.5033 246.031 36.7409C246.541 35.9786 246.865 35.1075 246.977 34.1975C247.064 33.6317 246.998 33.0531 246.787 32.521C246.679 32.2568 246.506 32.0235 246.286 31.8417C246.065 31.6599 245.803 31.5353 245.523 31.479L245.181 32.016C244.691 31.595 243.867 32.0277 243.661 32.6397C243.528 33.2753 243.584 33.9357 243.821 34.5402C244.057 35.1484 244.047 35.8248 243.791 36.4252C243.516 36.7783 243.206 37.1033 242.866 37.3955C242.7 37.5463 242.592 37.75 242.56 37.9717C242.527 38.1934 242.573 38.4193 242.69 38.611C243.011 38.9782 243.612 38.8244 244.039 38.5876Z" fill="#E6E6E6"/>
<path d="M240.56 35.5871C240.853 35.0615 240.991 34.4642 240.958 33.8638L240.212 33.6296C239.734 33.823 239.31 34.1291 238.977 34.5216C238.875 34.623 238.797 34.7455 238.749 34.8804C238.7 35.0153 238.682 35.1593 238.696 35.302C238.71 35.4446 238.755 35.5825 238.829 35.7056C238.902 35.8287 239.002 35.9341 239.122 36.0141C239.241 36.0941 239.376 36.1468 239.518 36.1684C239.66 36.1901 239.805 36.18 239.943 36.1391C240.08 36.0982 240.207 36.0274 240.314 35.9318C240.421 35.8361 240.505 35.718 240.561 35.586L240.56 35.5871Z" fill="#E6E6E6"/>
<path d="M277.102 31.8105C277.17 31.867 277.237 31.925 277.305 31.9824C277.364 31.9702 277.421 31.9473 277.482 31.9399L277.102 31.8105Z" fill="#E6E6E6"/>
<path d="M275.904 38.3599L277.963 36.6957C278.328 36.4388 278.638 36.1134 278.878 35.7378C279.042 35.3815 279.112 34.9897 279.083 34.5989C279.054 34.208 278.927 33.8309 278.712 33.5025C278.332 32.9205 277.857 32.407 277.305 31.9836C276.699 32.1268 276.166 32.4869 275.808 32.9958C275.45 33.5046 275.291 34.1269 275.362 34.7447C275.486 35.5307 275.98 36.3711 275.575 37.0571C275.418 37.3232 275.149 37.5063 274.967 37.7575C274.785 38.0087 274.727 38.4094 274.976 38.5946C275.254 38.7984 275.636 38.5765 275.904 38.3599Z" fill="#E6E6E6"/>
<path d="M277.406 41.753C277.661 41.7666 277.916 41.7253 278.154 41.6318C278.391 41.5383 278.606 41.3949 278.784 41.2112C279.701 40.4608 280.504 39.5804 281.167 38.5981L276.536 40.0606L277.016 40.6226C276.589 40.9036 276.904 41.6572 277.406 41.753Z" fill="#E6E6E6"/>
<path d="M281.734 44.9261C281.829 45.1666 281.999 45.3696 282.22 45.5042C282.441 45.6387 282.7 45.6974 282.957 45.6712C283.213 45.6371 283.459 45.5474 283.677 45.4082C283.894 45.2691 284.079 45.084 284.217 44.866C284.453 44.5206 284.591 44.1186 284.618 43.7018C284.646 43.2849 284.561 42.8684 284.373 42.4954C284.184 42.1223 283.899 41.8063 283.548 41.5802C283.196 41.354 282.79 41.226 282.371 41.2092L282.798 41.8596C282.906 42.9692 281.395 43.8633 281.734 44.9261Z" fill="#E6E6E6"/>
<path d="M311.73 57.082C312.148 57.3931 312.655 57.5607 313.176 57.5594C313.698 57.5582 314.204 57.3882 314.62 57.0751C314.89 56.845 315.11 56.5617 315.265 56.2431C315.42 55.9245 315.507 55.5773 315.522 55.2233C315.536 54.8694 315.477 54.5162 315.349 54.186C315.22 53.8558 315.025 53.5557 314.774 53.3044L313.986 53.744C313.548 53.4633 313.019 53.363 312.509 53.4641C311.999 53.5653 311.548 53.86 311.251 54.2863C310.985 54.7332 310.887 55.26 310.975 55.7724C311.063 56.2848 311.33 56.7491 311.73 57.082Z" fill="#E6E6E6"/>
<path d="M320.902 58.1191C321.286 58.0077 321.636 57.7998 321.916 57.5152C322.197 57.2306 322.4 56.8789 322.505 56.4937L320.972 56.2926C320.545 55.9711 320.048 55.7546 319.522 55.6608C319.258 55.6216 318.989 55.6742 318.759 55.8099C318.529 55.9456 318.353 56.156 318.26 56.4059C318.227 56.6182 318.249 56.8353 318.325 57.0366C318.4 57.2378 318.526 57.4164 318.69 57.5555C318.979 57.831 319.334 58.0278 319.722 58.1269C320.109 58.2261 320.516 58.2243 320.902 58.1217V58.1191Z" fill="#E6E6E6"/>
<path d="M314.57 61.1818C314.597 61.4308 314.694 61.6669 314.851 61.8627C315.007 62.0584 315.216 62.2056 315.453 62.2872C315.712 62.4099 316.003 62.452 316.286 62.4082C316.57 62.3644 316.833 62.2366 317.043 62.0413C317.136 61.9369 317.202 61.812 317.237 61.6768C317.271 61.5417 317.273 61.4003 317.241 61.2644C317.21 61.1285 317.147 61.002 317.057 60.8954C316.967 60.7889 316.852 60.7053 316.723 60.6518L315.573 60.4432C315.13 60.2117 314.562 60.6805 314.57 61.1818Z" fill="#E6E6E6"/>
<path d="M247.842 69.251L246.952 68.4399C247.189 68.7692 247.492 69.0455 247.842 69.251Z" fill="#E6E6E6"/>
<path d="M241.044 64.4743C241.592 67.0145 244.333 69.0836 246.821 68.3205L246.952 68.4402C246.16 67.3577 246.026 65.7564 246.211 64.3641C246.554 61.9778 247.494 59.7162 248.944 57.788C250.394 55.8599 252.307 54.3273 254.506 53.3317C255.109 53.1443 255.647 52.7943 256.063 52.3205C256.418 51.8026 256.285 50.9149 255.674 50.7691C255.342 50.7313 255.007 50.8088 254.726 50.9884L250.102 53.2603C247.766 54.4078 245.384 55.5882 243.55 57.4317C241.715 59.2752 240.496 61.9341 241.044 64.4743Z" fill="#E6E6E6"/>
<path d="M166.401 151.819C162.092 148.741 157.373 146.279 152.381 144.506C149.313 143.417 146.016 142.587 142.819 143.205C141.066 143.567 139.424 144.337 138.025 145.452C136.626 146.567 135.51 147.995 134.768 149.621C134.053 151.259 133.717 153.037 133.784 154.822C133.852 156.608 134.321 158.355 135.158 159.935C136.632 162.692 139.185 164.888 140.039 167.896C140.614 169.923 140.341 172.082 140.064 174.171L138.366 186.978C137.851 190.863 137.349 194.908 138.579 198.633C139.81 202.358 143.33 205.637 147.238 205.241L148.012 205.183C145.427 203.427 144.703 199.796 145.472 196.774C146.241 193.753 148.195 191.186 150.103 188.713L167.083 166.704C169.376 163.736 171.795 160.067 170.574 156.525C169.881 154.508 168.135 153.059 166.401 151.819Z" fill="#E6E6E6"/>
<path d="M127.827 133.274C127.254 133.08 126.648 133.51 126.311 134.012C126.039 134.551 125.719 135.065 125.355 135.547C124.473 136.451 122.867 136.274 121.915 135.44C120.964 134.607 120.553 133.314 120.369 132.064C120.148 130.564 120.243 128.89 121.236 127.741C122.257 126.559 123.936 126.242 125.48 125.996C127.075 125.742 128.863 125.531 130.172 126.478C130.995 127.076 131.475 128.039 132.238 128.714C133.001 129.388 134.358 129.641 134.932 128.802C135.082 128.505 135.158 128.175 135.153 127.843C135.148 127.51 135.063 127.183 134.904 126.89C134.581 126.306 134.387 125.661 134.335 124.997C134.373 124.075 135.115 123.342 135.874 122.815C136.633 122.287 137.49 121.833 137.988 121.055C138.601 120.097 138.535 118.867 138.915 117.797C139.835 115.208 143.117 114.056 144.072 111.479C144.303 110.938 144.329 110.331 144.146 109.771C143.746 108.745 142.664 108.946 142.599 107.692C142.536 106.493 143.538 105.316 144.557 104.815C145.962 104.123 147.599 104.18 149.164 104.138C150.729 104.096 152.417 103.888 153.565 102.826C153.936 102.443 154.223 101.987 154.406 101.486C154.589 100.985 154.663 100.452 154.625 99.9201C154.587 99.3885 154.437 98.8709 154.185 98.4011C153.933 97.9314 153.584 97.5201 153.161 97.1942C152.306 96.604 151.223 96.3991 150.389 95.777C149.351 95.0021 148.86 93.7115 148.053 92.7003C147.38 91.9305 146.611 91.2507 145.764 90.678L143.685 89.1373C142.431 88.2091 141.126 87.257 139.602 86.9265C138.079 86.596 136.261 87.0638 135.497 88.4225C135.196 89.0281 135.033 89.6921 135.017 90.3677C134.948 91.9589 135.014 93.5531 135.216 95.133L135.593 98.9484C135.706 100.088 135.585 101.591 134.474 101.887C132.014 102.543 132.844 98.9132 132.298 97.8015C131.463 96.0984 127.627 95.2815 125.987 94.5721C124.963 94.1288 123.881 93.6397 123.263 92.7121C122.493 91.5577 122.651 89.9861 123.255 88.7371C123.94 87.5295 124.774 86.4116 125.736 85.4092C126.646 84.3268 127.476 83.1788 128.304 82.0319L131.187 78.0404C132.419 76.3374 133.715 74.2533 133.014 72.2698C132.863 72.0045 132.636 71.7898 132.363 71.6525C132.089 71.5152 131.781 71.4615 131.477 71.4981C131.174 71.5347 130.887 71.6599 130.655 71.8582C130.422 72.0564 130.253 72.3188 130.168 72.6125C129.862 73.6833 130.68 75.0505 129.897 75.844C129.629 76.0596 129.293 76.1742 128.949 76.1677C128.605 76.1613 128.274 76.0343 128.014 75.8089C127.507 75.3414 127.121 74.7584 126.888 74.1096C125.94 72.0058 125.016 69.8888 124.042 67.7962C123.735 67.1346 123.413 66.0021 122.481 66.1133C121.671 66.2102 121.234 67.3906 121.262 68.0718C121.303 69.067 121.854 69.9558 122.275 70.8584C122.696 71.761 122.99 72.8451 122.528 73.7275C121.942 74.8451 120.46 75.0958 119.197 75.058C116.817 74.986 114.485 74.3719 112.38 73.2624L112.214 76.7653L107.187 74.6647L106.21 74.2565C104.797 73.6658 103.381 73.0745 101.926 72.595C101.099 72.323 100.262 72.0873 99.4247 71.8499L97.8976 71.4204C96.8931 71.065 95.8277 70.9132 94.7637 70.9739C93.644 71.1139 92.6491 71.7131 91.6153 72.1612C89.3088 73.1607 86.3257 72.1554 83.8539 72.1373C82.8736 70.7083 81.5499 69.5475 80.004 68.7611C78.4581 67.9747 76.7393 67.5877 75.0049 67.6357C73.2704 67.6837 71.5758 68.165 70.0759 69.0356C68.576 69.9063 67.3187 71.1385 66.4192 72.6195C65.9846 73.3698 65.5977 74.1465 65.2606 74.9452L64.2545 77.1958C63.7624 78.2964 63.2596 79.4555 63.3566 80.6551C63.4537 81.8547 64.376 83.0835 65.5831 83.0724C62.7365 84.3587 62.1442 88.8605 64.5616 90.8371C65.2307 91.3842 66.0518 91.7419 66.6543 92.3624C67.1096 92.8311 67.4143 93.4248 67.5291 94.0675C67.644 94.7103 67.5637 95.3726 67.2988 95.9694C67.0338 96.5663 66.5961 97.0705 66.042 97.4174C65.4879 97.7642 64.8426 97.9378 64.1889 97.9159C65.8754 98.5665 67.7331 98.6269 69.4586 98.0875C71.184 97.548 72.6751 96.4404 73.6884 94.9457C74.7217 93.3305 75.1712 91.3129 76.5772 90.0074C78.439 88.2788 81.5143 88.4108 83.6619 89.7722C85.8096 91.1336 87.1681 93.4444 88.1022 95.8063C89.3285 98.8999 90.1107 102.434 92.7195 104.503C93.981 105.504 95.5783 106.066 96.6932 107.228C98.281 108.881 98.5556 111.379 98.5198 113.667C98.4841 115.956 98.2367 118.333 99.0728 120.466C99.9088 122.599 102.304 124.351 104.453 123.549C103.837 125.372 103.856 127.349 104.506 129.159C105.157 130.97 106.4 132.509 108.035 133.526L106.862 126.256C108.813 126.805 110.077 128.693 110.808 130.581C111.538 132.468 111.924 134.509 112.983 136.234C114.649 138.948 117.668 140.119 120.738 140.111C124.055 140.1 125.314 138.521 127.5 136.196C127.94 135.8 128.273 135.3 128.47 134.743C128.558 134.462 128.541 134.158 128.423 133.889C128.305 133.619 128.094 133.4 127.827 133.274Z" fill="#E6E6E6"/>
<path d="M137.219 133.153L131.657 132.28L134.573 134.03C135.383 134.568 136.265 134.992 137.191 135.289C137.656 135.435 138.146 135.484 138.631 135.433C139.115 135.382 139.584 135.232 140.009 134.993L139.771 134.54C139.397 133.596 138.223 133.31 137.219 133.153Z" fill="#E6E6E6"/>
<path d="M135.96 143.44L135.973 143.408C135.86 143.222 135.695 143.074 135.498 142.983C135.301 142.892 135.082 142.862 134.867 142.896C134.44 142.972 134.004 142.979 133.574 142.917C133.302 142.81 133.058 142.64 132.865 142.421C132.672 142.202 132.534 141.939 132.463 141.656C132.278 141.102 132.224 140.51 132.014 139.966C131.862 139.535 131.594 139.155 131.24 138.866C130.886 138.578 130.459 138.393 130.006 138.331C129.551 138.295 129.101 138.438 128.752 138.731C128.402 139.024 128.183 139.442 128.14 139.895C128.175 140.361 128.324 140.812 128.573 141.209L129.172 142.36C129.34 142.704 129.534 143.035 129.752 143.351C130.106 143.837 130.569 144.235 131.104 144.512C131.639 144.789 132.231 144.938 132.834 144.947C133.436 144.955 134.033 144.823 134.575 144.562C135.118 144.3 135.592 143.916 135.96 143.44Z" fill="#E6E6E6"/>
<path d="M125.132 44.9579C126.543 45.7886 128.311 46.3613 128.982 47.8536L129.369 47.9781L128.103 49.5486C127.581 50.1958 127.033 50.9164 127.045 51.7471C127.062 52.8908 128.165 53.7535 129.277 54.0233C130.466 54.2678 131.703 54.0628 132.748 53.448C133.794 52.8333 134.573 51.8526 134.935 50.6966C135.067 50.2144 135.122 49.7147 135.238 49.2282C135.577 48.0749 136.088 46.9792 136.754 45.9781L147.998 27.0915C148.465 26.3075 148.946 25.3698 148.595 24.5273C148.407 24.1712 148.118 23.8793 147.762 23.6891C147.407 23.4989 147.003 23.4192 146.602 23.4603C145.802 23.5573 145.03 23.8165 144.334 24.2218C144.025 23.6796 143.588 23.2203 143.062 22.8836C142.536 22.5468 141.936 22.3425 141.313 22.2884C140.067 22.1925 138.815 22.3014 137.605 22.6109C134.871 23.0227 132.235 23.9267 129.825 25.2788C128.507 25.944 127.056 26.7657 126.673 28.1899C126.202 29.9419 127.719 31.7274 129.465 32.2314C131.21 32.7354 133.074 32.3123 134.841 31.8882C135.041 32.7432 134.958 33.6399 134.604 34.4438C134.251 35.2477 133.645 35.9156 132.879 36.3472C132.113 36.7788 131.228 36.951 130.356 36.8379C129.483 36.7249 128.671 36.3326 128.041 35.72C126.774 34.489 126.154 32.3517 124.415 32.034C122.677 31.7163 121.304 33.563 120.922 35.2804C120.548 37.13 120.751 39.0496 121.504 40.7803C122.257 42.511 123.524 43.9694 125.134 44.9589L125.132 44.9579Z" fill="#E6E6E6"/>
<path d="M146.874 75.2496C146.039 72.901 144.942 70.6537 143.603 68.5503C142.588 66.8876 141.336 65.3815 139.886 64.0798C138.56 62.9371 137.036 62.0461 135.389 61.4507C133.79 60.8738 132.011 60.5886 130.395 61.1149C128.779 61.6413 127.404 63.141 127.437 64.8371C127.473 66.7131 129.118 68.1798 130.831 68.9505C132.545 69.7211 134.451 70.0569 136.067 71.0133C137.167 71.6787 138.085 72.6035 138.742 73.7063C139.4 74.8091 139.776 76.0562 139.837 77.3379L140.244 78.0101C139.322 78.3152 138.462 78.7827 137.704 79.3906C137.329 79.6996 137.043 80.1019 136.873 80.5569C136.704 81.0119 136.658 81.5034 136.74 81.9819C137.022 83.1176 138.184 83.7695 139.235 84.2889L145.059 87.1681C144.07 84.2261 147.307 81.488 147.486 78.3901C147.493 77.3133 147.285 76.2459 146.875 75.2501L146.874 75.2496Z" fill="#E6E6E6"/>
<path d="M98.0592 67.3059C99.237 68.2186 101.045 67.7918 102.126 66.7646C103.207 65.7375 103.731 64.275 104.221 62.8695C104.042 64.2607 104.058 65.6702 104.271 67.0568C104.381 67.7502 104.635 68.4132 105.015 69.0037C105.396 69.5942 105.895 70.0994 106.482 70.4873C107.014 70.7788 107.588 70.9874 108.184 71.1058C110.952 71.7346 113.845 71.5282 116.495 70.5129L116.519 69.6082C115.186 69.7598 114.18 68.3021 114.092 66.9674C114.004 65.6326 114.489 64.3234 114.532 62.9865C114.575 61.6497 113.929 60.0871 112.613 59.8492C112.843 60.312 112.927 60.8338 112.854 61.3454C112.78 61.857 112.552 62.3341 112.2 62.7132C111.848 63.0922 111.389 63.3554 110.883 63.4675C110.378 63.5797 109.85 63.5355 109.37 63.341C107.844 62.7215 107.291 60.8652 106.11 59.7167C105.381 59.0696 104.476 58.652 103.51 58.5164C102.544 58.3808 101.56 58.5333 100.68 58.9546C99.8119 59.3968 99.0501 60.022 98.4475 60.7868C97.8449 61.5517 97.4159 62.4381 97.1901 63.3846C96.8297 64.7577 96.9358 66.4352 98.0592 67.3059Z" fill="#E6E6E6"/>
<path d="M134.404 57.7791L134.458 57.6907C134.251 57.2323 133.924 56.8379 133.512 56.5486C133.1 56.2593 132.617 56.0858 132.115 56.0462C131.112 55.9802 130.106 56.0133 129.11 56.1452C128.104 56.275 127.085 56.0509 126.227 55.5114C125.543 55.0005 125.152 54.1969 124.605 53.5423C124.058 52.8877 123.172 52.348 122.377 52.6609C121.516 53.0005 121.286 54.2043 121.704 55.0292C122.196 55.8205 122.938 56.4254 123.814 56.7482C127.128 58.2668 130.857 58.6302 134.403 57.7801L134.404 57.7791Z" fill="#E6E6E6"/>
<path d="M123.092 60.6194C122.817 60.8209 122.63 61.1206 122.571 61.4561C122.513 61.7916 122.586 62.1367 122.776 62.4194C122.966 62.7022 123.259 62.9005 123.592 62.9731C123.925 63.0457 124.274 62.9868 124.565 62.8089L124.855 63.0952C125.241 62.4033 125.401 61.48 124.909 60.86C124.689 60.6042 124.383 60.4382 124.048 60.3936C123.714 60.3491 123.375 60.4291 123.096 60.6183L123.092 60.6194Z" fill="#E6E6E6"/>
<path d="M119.693 63.0962C119.697 62.8496 119.626 62.6075 119.49 62.4017C119.354 62.1959 119.159 62.036 118.93 61.9429C118.774 61.9164 118.614 61.9216 118.46 61.9582C118.307 61.9948 118.162 62.0621 118.035 62.156C117.908 62.2499 117.801 62.3685 117.721 62.5047C117.641 62.6408 117.589 62.7917 117.569 62.9483C117.545 63.2673 117.587 63.5878 117.693 63.8899C117.798 64.192 117.964 64.4693 118.182 64.7045C118.308 64.8939 118.473 65.0544 118.666 65.1755C118.859 65.2966 119.076 65.3755 119.301 65.407C119.757 65.4219 120.22 64.9467 120.036 64.531L119.343 64.5177C119.557 64.0729 119.677 63.5888 119.695 63.0957L119.693 63.0962Z" fill="#E6E6E6"/>
<path d="M106.103 55.992L106.868 56.6115C107.31 56.9931 107.788 57.3317 108.294 57.6226C109.181 58.1125 110.223 58.2398 111.201 57.9776C111.684 57.8401 112.124 57.5835 112.482 57.2313C112.839 56.8792 113.102 56.4429 113.246 55.9627C113.551 54.8148 113.054 53.6211 112.566 52.5396C112.456 52.2297 112.273 51.9504 112.033 51.7248C111.91 51.6158 111.753 51.5527 111.588 51.5462C111.424 51.5397 111.262 51.5902 111.13 51.6892C111.035 51.8077 110.972 51.9486 110.946 52.0984C110.921 52.2483 110.934 52.4022 110.985 52.5455C111.09 52.831 111.137 53.1342 111.126 53.438C111.077 53.7376 110.762 54.0234 110.486 53.8967L110.442 54.9164C109.116 54.2469 108.416 52.4683 106.941 52.29C106.61 52.2507 106.274 52.3028 105.971 52.4407C105.668 52.5786 105.408 52.797 105.221 53.0721C105.033 53.3471 104.925 53.6683 104.908 54.0006C104.89 54.3329 104.965 54.6635 105.123 54.9563C105.379 55.3627 105.713 55.7146 106.105 55.992H106.103Z" fill="#E6E6E6"/>
<path d="M102.946 51.5892C103.252 51.3794 103.495 51.0892 103.647 50.7506C103.799 50.412 103.854 50.038 103.806 49.6701C103.77 49.4919 103.694 49.3239 103.585 49.1782C103.476 49.0324 103.336 48.9124 103.175 48.8268C103.014 48.7411 102.837 48.6919 102.655 48.6825C102.473 48.6732 102.291 48.704 102.122 48.7728C101.743 49.0554 101.477 49.4629 101.371 49.9229L100.324 52.8734L100.91 52.4476C101.636 52.2915 102.327 52.0007 102.946 51.5903V51.5892Z" fill="#E6E6E6"/>
<path d="M109.748 45.554C109.853 45.422 109.928 45.2687 109.967 45.1048C110.006 44.9409 110.008 44.7704 109.974 44.6053C109.94 44.4403 109.871 44.2847 109.77 44.1495C109.669 44.0143 109.54 43.9028 109.391 43.8228L108.657 43.7542C108.49 43.7963 108.335 43.8769 108.205 43.9896C108.075 44.1022 107.974 44.2437 107.908 44.4027C107.843 44.5617 107.816 44.7337 107.829 44.9051C107.842 45.0764 107.896 45.2423 107.985 45.3893C108.074 45.5364 108.196 45.6605 108.342 45.7518C108.488 45.843 108.654 45.8989 108.825 45.9148C108.996 45.9308 109.169 45.9064 109.329 45.8437C109.49 45.7809 109.633 45.6815 109.748 45.5535V45.554Z" fill="#E6E6E6"/>
<path d="M116.502 46.6856C117.187 47.0129 118.054 47.3242 118.649 46.8548C118.826 46.6954 118.957 46.4924 119.03 46.2661C119.103 46.0399 119.114 45.7986 119.064 45.5664C118.957 45.103 118.75 44.6685 118.458 44.2928C117.547 42.9869 116.389 41.8709 115.05 41.0076L114.719 41.4371C114.256 42.6361 113.81 44.0358 114.452 45.147C114.966 45.8522 115.68 46.388 116.502 46.6856Z" fill="#E6E6E6"/>
<path d="M121.604 47.752L122.883 48.3305C122.758 48.1122 122.567 47.9389 122.337 47.8351C122.107 47.7312 121.851 47.7022 121.604 47.752Z" fill="#E6E6E6"/>
<path d="M118.152 51.7749L117.547 51.9739C117.033 52.818 117.256 53.8973 117.494 54.8563C117.645 55.4625 117.974 56.2081 118.597 56.1809C119.205 56.1543 119.475 55.4178 119.591 54.8212C119.774 54.1731 119.793 53.4903 119.649 52.8329C119.567 52.5075 119.371 52.2221 119.096 52.0282C118.822 51.8342 118.487 51.7444 118.152 51.7749Z" fill="#E6E6E6"/>
<path d="M108.499 48.9335L108.947 49.1134C109.051 49.0982 109.147 49.0491 109.221 48.9737C109.295 48.8983 109.341 48.8008 109.354 48.6962C109.366 48.5917 109.344 48.4859 109.29 48.3953C109.237 48.3047 109.154 48.2343 109.057 48.195C108.959 48.1557 108.851 48.1497 108.749 48.1779C108.647 48.2061 108.558 48.2669 108.494 48.351C108.431 48.4351 108.397 48.5377 108.398 48.643C108.398 48.7483 108.434 48.8504 108.499 48.9335Z" fill="#E6E6E6"/>
<path d="M131.077 83.114C130.86 83.1188 130.647 83.1754 130.457 83.2789C130.266 83.3825 130.103 83.53 129.981 83.7092C129.859 83.8884 129.782 84.094 129.756 84.3091C129.73 84.5241 129.756 84.7422 129.831 84.9452C130.271 85.8904 131.786 85.8947 132.459 85.098C132.632 84.8715 132.755 84.6118 132.822 84.3352C132.889 84.0586 132.898 83.7712 132.847 83.4911C132.797 83.211 132.69 82.9443 132.531 82.7079C132.372 82.4715 132.166 82.2705 131.926 82.1177L131.077 83.114Z" fill="#E6E6E6"/>
<path d="M152.891 105.504C152.714 105.551 152.549 105.633 152.405 105.744C152.261 105.856 152.141 105.995 152.052 106.154C151.963 106.313 151.907 106.488 151.887 106.669C151.867 106.85 151.883 107.033 151.935 107.207L153.192 107.294L154.472 106.656C154.446 106.476 154.385 106.303 154.291 106.147C154.197 105.991 154.073 105.856 153.925 105.749C153.778 105.642 153.611 105.565 153.434 105.524C153.256 105.482 153.072 105.477 152.893 105.507L152.891 105.504Z" fill="#E6E6E6"/>
<path d="M147.78 107.057C147.42 107.312 147.132 107.654 146.941 108.051C146.751 108.449 146.664 108.888 146.691 109.327C146.732 109.766 146.912 110.18 147.204 110.51C147.497 110.84 147.887 111.068 148.318 111.162C148.753 111.23 149.198 111.13 149.562 110.883C149.927 110.636 150.184 110.26 150.281 109.831C150.495 108.533 149.096 107.582 148.594 106.366L147.78 107.057Z" fill="#E6E6E6"/>
<path d="M196.614 98.4831C196.747 99.4576 195.868 100.311 195.834 101.294C195.796 102.46 197.068 103.37 198.231 103.253C198.809 103.153 199.355 102.921 199.827 102.575C200.3 102.229 200.685 101.778 200.953 101.257L200.978 101.148L199.278 99.2325C198.582 98.4475 197.845 97.5534 197.872 96.5055C197.885 95.9887 198.089 95.4885 198.078 94.9717C198.05 94.6001 197.967 94.2346 197.831 93.8876C197.678 93.4305 197.469 92.9153 197.011 92.7609C196.439 92.5678 195.861 93.0744 195.587 93.6125C195.341 94.1088 195.222 94.658 195.239 95.2114C195.256 95.7648 195.41 96.3054 195.687 96.7854C196.018 97.3448 196.527 97.8381 196.614 98.4831Z" fill="#E6E6E6"/>
<path d="M191.269 101.912C191.393 101.979 191.53 102.018 191.671 102.027C191.811 102.036 191.952 102.015 192.084 101.965C192.589 101.879 193.074 101.703 193.516 101.445C193.736 101.314 193.916 101.126 194.04 100.901C194.163 100.677 194.224 100.424 194.217 100.168C194.14 99.8466 193.97 99.5549 193.727 99.33C193.485 99.1051 193.18 98.9571 192.853 98.9047C192.626 98.825 192.383 98.8023 192.145 98.8386C191.908 98.8749 191.682 98.9691 191.49 99.1128C191.067 99.5083 191.116 100.177 191.201 100.751L191.112 100.9C191.034 101.25 190.983 101.691 191.269 101.912Z" fill="#E6E6E6"/>
<path d="M280.467 143.561L280.1 142.648C279.932 143.062 279.994 143.484 280.467 143.561Z" fill="#E6E6E6"/>
<path d="M354.045 79.5662C352.472 77.8632 351.508 76.8807 350.515 74.7695C349.975 73.6049 349.154 72.5919 348.126 71.8212C347.098 71.0504 345.894 70.5457 344.623 70.3523C341.36 69.8158 338.026 70.6652 334.723 70.4949C329.432 70.2224 324.662 67.39 319.596 65.8451C316.759 65.0518 313.871 64.4571 310.951 64.0654L305.904 63.2671C300.39 62.3964 294.84 61.5236 289.258 61.6391C287.649 61.6726 285.407 61.1894 285.536 59.588C285.696 57.5987 289.282 57.86 289.971 55.9866C290.398 54.828 289.377 53.6109 288.257 53.0872C287.136 52.5635 285.844 52.4055 284.827 51.7035C283.811 51.0015 283.254 49.3693 284.187 48.5598L276.42 52.5348C274.267 53.6364 271.862 55.0697 271.481 57.4544C270.184 57.7966 269.049 58.5838 268.275 59.678C266.818 59.6854 265.674 61.0814 265.434 62.5151C265.193 63.9488 265.63 65.4001 266.062 66.7887C265.533 65.7775 264.972 64.7301 264.041 64.0707C263.11 63.4113 261.692 63.2863 260.899 64.1048C260.084 64.9451 260.274 66.3549 260.851 67.3725C261.427 68.39 262.312 69.2123 262.856 70.2463C264.554 73.481 261.476 78.0351 257.836 77.6748C258.08 74.3347 258.324 70.9946 258.569 67.6545C258.723 66.6272 258.637 65.5779 258.316 64.5896C257.919 63.6317 256.902 62.8483 255.89 63.0739C254.07 63.48 254.226 66.1404 254.983 67.8413C255.741 69.5422 256.495 71.9073 254.95 72.9504C253.952 73.6231 252.599 73.2075 251.522 72.6705C250.445 72.1335 249.292 71.472 248.115 71.7227C246.937 71.9733 246.195 73.77 247.237 74.3751L242.061 73.4773C241.976 73.9843 241.785 74.4678 241.5 74.8965C241.216 75.3252 240.845 75.6896 240.411 75.9661C239.976 76.2427 239.489 76.4252 238.98 76.5019C238.47 76.5785 237.95 76.5477 237.454 76.4113L236.946 74.3091L236.188 74.0963C236.98 74.3166 235.741 77.6529 234.629 80.2011C233.136 80.026 230.95 79.9925 230.702 79.5625C229.509 77.5156 229.65 72.6402 227.577 71.4885C226.537 70.9109 225.471 70.3847 224.378 69.91C223.804 69.6374 223.197 69.4387 222.573 69.3187C221.3 69.1186 220.014 69.5124 218.788 69.9041C217.363 70.1764 216.017 70.7638 214.85 71.6233C213.682 72.4827 212.722 73.5923 212.041 74.8706L204.923 85.3943C204.216 86.3313 203.659 87.3727 203.274 88.481C203.092 89.0316 203.031 89.6148 203.095 90.1909C203.16 90.7671 203.348 91.3226 203.647 91.8195C203.963 92.3066 204.433 92.6734 204.983 92.8609C205.533 93.0485 206.13 93.0459 206.679 92.8536C207.366 92.5566 208.055 91.8829 208.737 92.1937C209.253 92.4294 209.382 93.1064 209.328 93.6705C209.197 94.2227 209.187 94.7967 209.298 95.3533C209.608 96.2314 210.802 96.5369 211.654 96.1569C212.482 95.7061 213.102 94.9521 213.384 94.0537C214.205 91.9531 214.121 89.629 214.325 87.3836C214.53 85.1383 215.144 82.737 216.918 81.3411C217.451 80.9233 218.229 80.6221 218.775 81.0218C218.98 81.2074 219.121 81.4522 219.18 81.7219C219.238 81.9916 219.211 82.2728 219.102 82.5263C218.873 83.0278 218.575 83.4948 218.216 83.9137C217.611 84.7646 217.187 85.7309 216.971 86.7524C216.755 87.7739 216.753 88.8289 216.963 89.8515L217.326 90.0755C218.709 89.7173 220.559 90.3587 222.395 90.9733C221.064 91.3681 219.891 92.1721 219.044 93.2708C216.922 96.2426 215.386 99.0553 211.189 99.0186C210.193 99.01 209.205 98.8137 208.21 98.8116C207.205 98.7493 206.214 99.0786 205.447 99.7301C204.692 100.468 204.459 101.593 203.813 102.426C202.963 103.524 201.544 103.97 200.248 104.469C199.3 104.833 198.301 105.325 197.866 106.24C197.592 106.991 197.529 107.802 197.683 108.586C197.83 109.972 198.088 111.549 199.266 112.298C199.707 112.527 200.189 112.667 200.684 112.709C201.18 112.751 201.678 112.694 202.151 112.542C203.378 112.244 204.576 111.684 205.835 111.767C206.821 111.887 207.73 112.357 208.396 113.092C209.062 113.828 209.44 114.778 209.46 115.77C209.47 116.77 209.178 117.918 209.842 118.667C210.014 118.825 210.215 118.947 210.434 119.027C210.654 119.107 210.886 119.143 211.119 119.133C211.353 119.124 211.581 119.068 211.793 118.97C212.004 118.871 212.194 118.732 212.352 118.561C212.653 118.197 212.86 117.766 212.955 117.304C213.05 116.842 213.03 116.364 212.897 115.911C212.622 115.01 212.2 114.16 211.647 113.396C212.305 113.226 213.001 113.289 213.618 113.573C214.235 113.858 214.734 114.347 215.03 114.958C215.469 115.931 215.327 117.055 215.467 118.113C215.608 119.172 216.253 120.349 217.321 120.409C217.67 120.419 218.012 120.306 218.286 120.091C218.561 119.876 218.752 119.571 218.825 119.23C218.836 118.693 218.807 118.156 218.737 117.623C218.774 117.099 219.01 116.608 219.397 116.252C219.785 115.895 220.294 115.701 220.82 115.707C220.496 116.306 220.39 117 220.522 117.668C220.653 118.337 221.013 118.939 221.541 119.371C222.353 119.998 223.428 120.139 224.44 120.314C225.452 120.49 226.532 120.767 227.185 121.559C228.273 122.877 226.942 123.471 226.734 124.587C226.48 125.958 227.627 127.983 228.067 129.294L234.142 137.776C234.594 138.464 235.127 139.095 235.73 139.655C236.768 140.47 238.062 140.891 239.383 140.844C240.703 140.796 241.963 140.283 242.94 139.395C243.869 138.457 244.472 137.245 244.661 135.94C244.85 134.634 244.615 133.302 243.99 132.139C242.805 129.987 240.458 128.653 239.298 126.487C241.227 128.082 243.596 129.054 246.09 129.276C250.504 130.171 254.697 131.926 258.43 134.441C258.606 138.335 260.103 142.053 262.675 144.985C263.137 141.662 264.689 138.586 267.088 136.237C268.648 134.719 270.779 133.494 272.919 133.903C275.059 134.312 276.683 137.036 275.388 138.785L278.64 139.027L280.1 142.646C280.186 142.391 280.351 142.171 280.572 142.018C280.793 141.865 281.057 141.786 281.326 141.794C282.339 141.947 283.053 142.89 284.02 143.238C285.84 143.895 287.786 142.077 288.022 140.159C288.258 138.24 287.343 136.389 286.456 134.672C288.417 135.035 290.442 134.819 292.283 134.05C294.124 133.282 295.7 131.994 296.818 130.345C297.937 128.697 298.55 126.758 298.582 124.767C298.614 122.775 298.063 120.818 296.997 119.135C299.108 116.922 301.592 115.096 304.336 113.741C306.876 112.489 309.653 111.63 311.872 109.873C314.091 108.117 315.647 105.066 314.58 102.448C313.826 100.598 311.934 99.3427 311.369 97.4273C310.549 94.6545 313.038 91.786 315.85 91.0941C318.662 90.4023 321.599 91.2538 324.369 92.0979C323.942 89.2527 327.248 86.5859 329.945 87.596L333.336 86.2256C332.026 89.1085 329.187 90.9425 327.098 93.3256C325.008 95.7088 323.768 99.5901 325.948 101.889L335.323 93.4065L345.13 84.5343L344.662 83.1612C347.755 81.9925 351.086 81.0228 354.045 79.5662Z" fill="#E6E6E6"/>
<path d="M191.719 117.619C191.593 117.8 191.526 118.016 191.527 118.237C191.528 118.458 191.598 118.673 191.726 118.854C191.894 118.996 192.106 119.075 192.326 119.078C192.546 119.081 192.761 119.007 192.932 118.87C193.268 118.584 193.53 118.222 193.697 117.814C193.859 118.127 194.114 118.383 194.427 118.547C194.741 118.711 195.097 118.774 195.447 118.729C196.148 118.624 196.811 118.347 197.379 117.925C197.829 117.661 198.227 117.317 198.551 116.909C198.712 116.704 198.823 116.464 198.874 116.208C198.925 115.953 198.916 115.689 198.846 115.437C198.678 115.052 198.416 114.715 198.084 114.456L195.604 112.167L195.323 112.083C195.177 111.928 195.002 111.804 194.807 111.719C194.612 111.633 194.401 111.588 194.188 111.586C193.975 111.583 193.764 111.624 193.567 111.705C193.371 111.787 193.192 111.907 193.043 112.058C192.53 112.632 192.528 113.49 192.606 114.255C192.684 115.02 192.807 115.836 192.465 116.526C192.269 116.922 191.937 117.236 191.719 117.619Z" fill="#E6E6E6"/>
<path d="M239.698 143.665C236.485 142.951 233.543 141.334 231.221 139.004C228.899 136.675 227.294 133.731 226.595 130.52C226.29 129.004 226.152 127.348 225.142 126.177C224.164 125.043 222.567 124.633 221.067 124.633C219.568 124.633 218.091 124.978 216.594 125.071C213.978 125.234 211.206 124.544 209.335 122.712C208.45 121.844 207.779 120.743 206.744 120.058C205.354 119.138 203.51 119.138 201.926 119.659C200.161 120.24 198.749 121.829 196.819 121.61C194.812 121.383 192.487 120.674 191.701 123.313C191.474 124.072 191.551 124.905 191.265 125.644C190.823 126.783 189.649 127.425 188.72 128.22C186.85 129.822 185.856 132.256 185.521 134.693C185.186 137.13 185.446 139.605 185.705 142.051C185.844 143.37 186.028 144.79 186.936 145.76C188.202 147.11 190.326 147.058 192.173 146.906L198.609 146.374C199.765 146.278 201.084 146.238 201.907 147.054C202.4 147.543 202.609 148.251 203.043 148.794C203.432 149.255 203.967 149.571 204.56 149.691C205.152 149.81 205.768 149.725 206.306 149.45C205.871 150.226 205.634 151.097 205.617 151.986C205.599 152.875 205.801 153.754 206.206 154.547C206.61 155.339 207.203 156.02 207.934 156.528C208.664 157.037 209.509 157.358 210.394 157.463L210.559 157.57C209.186 159.917 207.76 162.554 208.33 165.212C208.818 167.492 210.709 169.319 211.019 171.63C211.303 173.75 210.195 175.918 210.685 178C211.181 180.109 213.314 181.579 215.479 181.736C217.643 181.893 219.769 180.934 221.445 179.559C223.063 178.112 224.491 176.467 225.695 174.663C226.484 173.582 227.295 172.456 227.561 171.146C227.849 169.753 227.515 168.208 228.194 166.957C228.977 165.514 230.836 164.973 231.774 163.625C232.989 161.88 232.273 159.504 232.542 157.395C233.208 152.174 239.849 148.922 239.698 143.665Z" fill="#E6E6E6"/>
<path d="M238.739 161.476C238.557 162.291 237.793 162.827 237.065 163.237C236.336 163.648 235.535 164.061 235.164 164.809C234.784 165.575 234.958 166.488 235.157 167.319C235.57 169.049 236.057 170.759 236.618 172.449C237.705 170.399 238.654 168.28 239.459 166.104C239.799 165.294 240.01 164.436 240.082 163.56C240.115 163.122 240.056 162.682 239.909 162.268C239.761 161.854 239.528 161.475 239.225 161.156L238.739 161.476Z" fill="#E6E6E6"/>
<path d="M283.43 152.402L280.692 149.247C280.068 148.528 279.356 147.76 278.411 147.64L278.021 147.888L280.395 153.529C280.675 154.388 281.168 155.162 281.828 155.78C282.536 156.335 283.685 156.442 284.275 155.763C284.466 155.509 284.586 155.208 284.623 154.893C284.661 154.578 284.614 154.258 284.489 153.966C284.231 153.386 283.872 152.856 283.428 152.401L283.43 152.402Z" fill="#E6E6E6"/>
<path d="M292.272 154.416C292.617 154.296 292.933 154.106 293.2 153.858C293.467 153.609 293.679 153.308 293.823 152.972C294.106 152.301 294.293 151.594 294.378 150.871L294.846 148.046L294.641 147.993C294.443 147.897 294.217 147.877 294.005 147.936C293.793 147.995 293.61 148.128 293.489 148.312C293.259 148.686 293.085 149.091 292.973 149.515C292.915 149.727 292.81 149.924 292.666 150.09C292.522 150.255 292.342 150.387 292.139 150.473C291.407 150.694 290.713 149.919 289.948 149.949C289.64 149.988 289.354 150.131 289.136 150.353C288.919 150.575 288.784 150.864 288.752 151.173C288.708 151.797 288.885 152.417 289.253 152.924C289.905 153.936 291.115 154.748 292.272 154.416Z" fill="#E6E6E6"/>
<path d="M297.317 156.201L299.42 150.672C298.568 151.289 297.915 152.141 297.542 153.123C297.168 154.105 297.09 155.175 297.317 156.201Z" fill="#E6E6E6"/>
<path d="M308.05 151.746L307.623 151.764C307.433 152.139 307.332 152.553 307.328 152.974C307.324 153.394 307.417 153.81 307.6 154.189C307.973 154.944 308.516 155.603 309.187 156.114C310.226 156.97 311.411 157.631 312.687 158.064C314.557 158.609 316.49 158.906 318.437 158.948L321.777 159.167C322.308 159.201 322.993 159.134 323.141 158.624C323.263 158.203 322.904 157.808 322.568 157.525C319.623 155.051 316.052 153.434 312.247 152.849C310.805 152.628 309.274 152.538 308.05 151.746Z" fill="#E6E6E6"/>
<path d="M319.933 166.417L317.532 164.092C316.753 163.338 315.586 162.539 314.694 163.154C314.181 163.508 314.023 164.198 313.588 164.645C313.323 164.881 313.004 165.048 312.658 165.131C312.312 165.213 311.951 165.207 311.608 165.115C310.924 164.923 310.278 164.617 309.696 164.21L307.709 162.98L305.653 161.706L304.107 163.207C304.174 162.468 303.188 161.988 302.505 162.28C302.18 162.462 301.901 162.714 301.688 163.018C301.474 163.322 301.332 163.67 301.272 164.036C301.159 164.769 300.96 165.487 300.681 166.174C299.896 167.675 297.988 168.12 296.309 168.372C294.63 168.623 292.73 168.977 291.83 170.414C291.084 171.611 291.306 173.148 291.556 174.536L292.502 179.789C292.547 180.425 292.803 181.028 293.229 181.504C294.06 182.235 295.347 181.79 296.36 181.344C298.48 180.326 300.754 179.669 303.091 179.397C305.447 179.133 307.819 179.739 309.758 181.1C310.961 182.014 311.878 183.28 313.152 184.091C314.03 184.618 315.016 184.938 316.037 185.027C317.057 185.116 318.084 184.971 319.04 184.604C320.956 183.843 322.542 182.431 323.519 180.618C324.385 179.019 324.821 177.223 324.781 175.406C324.741 173.588 324.228 171.812 323.292 170.253C322.336 168.84 321.208 167.552 319.933 166.417Z" fill="#E6E6E6"/>
<path d="M317.573 187.817C317.38 188.05 317.268 188.338 317.252 188.639C317.236 188.94 317.317 189.239 317.483 189.491C317.832 189.99 318.364 190.331 318.963 190.442C319.557 190.548 320.162 190.576 320.763 190.524L320.781 190.076C320.621 189.29 320.258 188.559 319.727 187.956C319.147 187.405 318.122 187.236 317.573 187.817Z" fill="#E6E6E6"/>
<path d="M338.19 188.294L337.903 188.187L335.853 191.274C335.486 191.827 335.102 192.491 335.327 193.116C335.593 193.855 336.573 194.074 337.336 193.876C337.917 193.719 338.442 193.399 338.848 192.954C339.254 192.51 339.525 191.958 339.628 191.366C339.712 190.769 339.621 190.162 339.365 189.617C339.11 189.072 338.701 188.612 338.189 188.295L338.19 188.294Z" fill="#E6E6E6"/>
<path d="M343.398 185.035L341.512 183.538C341.487 184.232 341.462 184.927 341.436 185.621H341.365C341.8 186.002 342.211 186.409 342.595 186.841C343.036 187.214 343.777 187.387 344.154 186.948C344.267 186.791 344.331 186.604 344.339 186.411C344.346 186.217 344.296 186.026 344.195 185.861C343.987 185.534 343.715 185.253 343.395 185.033L343.398 185.035Z" fill="#E6E6E6"/>
<path d="M309.326 119.92C308.535 119.895 307.659 119.847 307.045 120.345C306.843 120.525 306.666 120.731 306.519 120.958L306.302 121.26C305.979 121.683 305.697 122.136 305.46 122.613C305.336 122.836 305.262 123.083 305.242 123.338C305.222 123.592 305.258 123.848 305.345 124.088C305.396 124.202 305.471 124.305 305.566 124.387C305.66 124.469 305.772 124.53 305.893 124.564C306.013 124.599 306.14 124.607 306.264 124.587C306.388 124.567 306.506 124.521 306.61 124.45C306.948 124.137 306.869 123.57 307.125 123.187C307.238 123.043 307.382 122.927 307.548 122.848C307.713 122.769 307.894 122.73 308.077 122.733C308.443 122.742 308.807 122.783 309.165 122.856C310.157 122.991 311.167 122.841 312.077 122.422C312.986 122.003 313.756 121.333 314.296 120.491C314.835 119.649 315.123 118.671 315.123 117.671C315.124 116.671 314.838 115.693 314.299 114.85L314.236 114.656C313.688 114.635 313.15 114.807 312.716 115.141C312.282 115.475 311.979 115.951 311.859 116.485C311.682 117.406 312.057 118.475 311.498 119.228C311.025 119.864 310.116 119.945 309.326 119.92Z" fill="#E6E6E6"/>
<path d="M316.408 110.162L316.288 110.151C315.58 110.28 314.901 110.532 314.281 110.896C314.077 110.99 313.915 111.155 313.823 111.359C313.796 111.468 313.797 111.581 313.825 111.689C313.853 111.797 313.907 111.897 313.983 111.979C314.137 112.141 314.317 112.276 314.516 112.378C314.812 112.575 315.139 112.721 315.484 112.81C315.656 112.853 315.837 112.852 316.01 112.807C316.182 112.763 316.34 112.676 316.471 112.556C316.593 112.388 316.678 112.195 316.718 111.991C316.758 111.787 316.752 111.577 316.702 111.376C316.646 110.962 316.548 110.554 316.409 110.16L316.408 110.162Z" fill="#E6E6E6"/>
<path d="M304.21 120.154C304.399 119.852 304.534 119.518 304.607 119.169L304.829 118.356L304.04 117.877C303.663 118.073 303.315 118.321 303.007 118.612C302.853 118.759 302.732 118.936 302.65 119.132C302.569 119.328 302.529 119.539 302.533 119.751C302.544 119.963 302.626 120.166 302.767 120.325C302.908 120.484 303.098 120.591 303.308 120.629C303.486 120.634 303.663 120.593 303.822 120.51C303.98 120.427 304.114 120.304 304.21 120.154Z" fill="#E6E6E6"/>
<path d="M218.268 46.9266C217.956 47.1208 218.044 47.5897 218.171 47.9346L218.607 49.1214L218.81 48.3534C218.989 48.0556 219.068 47.7086 219.035 47.363C218.965 47.0256 218.561 46.744 218.268 46.9266Z" fill="#E6E6E6"/>
<path d="M415.235 118.174H283.286C280.105 118.171 277.056 116.908 274.807 114.663C272.558 112.418 271.293 109.374 271.289 106.2V11.9745C271.293 8.79967 272.558 5.75588 274.807 3.51097C277.056 1.26605 280.105 0.00338103 283.286 0H415.235C418.416 0.00338103 421.465 1.26605 423.714 3.51097C425.963 5.75588 427.228 8.79967 427.232 11.9745V106.2C427.228 109.375 425.964 112.419 423.714 114.664C421.465 116.909 418.416 118.171 415.235 118.175V118.174Z" fill="white"/>
<path d="M415.235 118.174H283.286C280.105 118.171 277.056 116.908 274.807 114.663C272.558 112.418 271.293 109.374 271.289 106.2V11.9745C271.293 8.79967 272.558 5.75588 274.807 3.51097C277.056 1.26605 280.105 0.00338103 283.286 0H415.235C418.416 0.00338103 421.465 1.26605 423.714 3.51097C425.963 5.75588 427.228 8.79967 427.232 11.9745V106.2C427.228 109.375 425.964 112.419 423.714 114.664C421.465 116.909 418.416 118.171 415.235 118.175V118.174ZM283.286 1.04205C280.382 1.04557 277.599 2.19853 275.546 4.24803C273.493 6.29752 272.338 9.07618 272.334 11.9745V106.2C272.338 109.098 273.493 111.877 275.546 113.926C277.599 115.976 280.382 117.128 283.286 117.132H415.235C418.139 117.129 420.923 115.976 422.976 113.926C425.03 111.877 426.184 109.098 426.188 106.2V11.9745C426.184 9.07599 425.03 6.29718 422.976 4.24765C420.923 2.19813 418.139 1.04529 415.235 1.04205H283.286Z" fill="#3F3D56"/>
<path d="M319.185 14.3507H298.324C297.776 14.342 297.254 14.1188 296.87 13.7292C296.486 13.3397 296.271 12.8151 296.271 12.2685C296.271 11.722 296.486 11.1973 296.87 10.8078C297.254 10.4182 297.776 10.195 298.324 10.1863H319.185C319.733 10.195 320.255 10.4182 320.639 10.8078C321.023 11.1973 321.238 11.722 321.238 12.2685C321.238 12.8151 321.023 13.3397 320.639 13.7292C320.255 14.1188 319.733 14.342 319.185 14.3507Z" fill="#CCCCCC"/>
<path d="M364.559 61.2033H298.324C297.776 61.1945 297.254 60.9713 296.87 60.5818C296.486 60.1922 296.271 59.6676 296.271 59.121C296.271 58.5745 296.486 58.0499 296.87 57.6603C297.254 57.2708 297.776 57.0476 298.324 57.0388H364.559C365.107 57.0476 365.629 57.2708 366.013 57.6603C366.397 58.0499 366.612 58.5745 366.612 59.121C366.612 59.6676 366.397 60.1922 366.013 60.5818C365.629 60.9713 365.107 61.1945 364.559 61.2033Z" fill="#CCCCCC"/>
<path d="M310.056 48.0547C317.781 48.0547 324.044 41.8039 324.044 34.093C324.044 26.3822 317.781 20.1313 310.056 20.1313C302.331 20.1313 296.069 26.3822 296.069 34.093C296.069 41.8039 302.331 48.0547 310.056 48.0547Z" fill="#2492CD"/>
<path d="M299.367 100.967H296.238V102.008H299.367V100.967Z" fill="#3F3D56"/>
<path d="M391.246 102.008H384.683V100.967H391.246V102.008ZM378.12 102.008H371.557V100.967H378.12V102.008ZM364.995 102.008H358.432V100.967H364.995V102.008ZM351.869 102.008H345.307V100.967H351.869V102.008ZM338.744 102.008H332.183V100.967H338.741L338.744 102.008ZM325.618 102.008H319.055V100.967H325.618V102.008ZM312.493 102.008H305.93V100.967H312.493V102.008Z" fill="#3F3D56"/>
<path d="M400.938 100.967H397.809V102.008H400.938V100.967Z" fill="#3F3D56"/>
<path d="M349.351 82.5444H346.743V100.244H349.351V82.5444Z" fill="#3284B0"/>
<path d="M375.95 82.5444H373.342V100.244H375.95V82.5444Z" fill="#3284B0"/>
<path d="M388.988 92.4358H386.38V100.245H388.988V92.4358Z" fill="#3284B0"/>
<path d="M362.389 74.7356H359.782V100.244H362.389V74.7356Z" fill="#3284B0"/>
<path d="M109.964 117.944C111.693 117.944 113.094 116.546 113.094 114.82C113.094 113.095 111.693 111.697 109.964 111.697C108.236 111.697 106.835 113.095 106.835 114.82C106.835 116.546 108.236 117.944 109.964 117.944Z" fill="#3284B0"/>
<path d="M118.309 102.847C120.037 102.847 121.438 101.449 121.438 99.7238C121.438 97.9988 120.037 96.6003 118.309 96.6003C116.581 96.6003 115.18 97.9988 115.18 99.7238C115.18 101.449 116.581 102.847 118.309 102.847Z" fill="#3284B0"/>
<path d="M210.1 90.8739C211.828 90.8739 213.229 89.4755 213.229 87.7504C213.229 86.0254 211.828 84.627 210.1 84.627C208.372 84.627 206.971 86.0254 206.971 87.7504C206.971 89.4755 208.372 90.8739 210.1 90.8739Z" fill="#3284B0"/>
</g>
<defs>
<clipPath id="clip0_172_449">
<rect width="427" height="295" fill="white"/>
</clipPath>
</defs>
</svg>
