<svg width="40" height="32" viewBox="0 0 40 32" fill="none" xmlns="http://www.w3.org/2000/svg">
<path d="M1.94458 17.8333C1.29625 16.7036 0.810139 15.5647 0.48625 14.4167C0.162083 13.2686 0 12.1297 0 11C0 7.92583 1.06486 5.32403 3.19458 3.19458C5.32403 1.06486 7.92583 0 11 0C12.75 0 14.4121 0.363472 15.9863 1.09042C17.5601 1.81708 18.8981 2.81472 20 4.08333C21.1019 2.81472 22.4399 1.81708 24.0138 1.09042C25.5879 0.363472 27.25 0 29 0C32.0742 0 34.676 1.06486 36.8054 3.19458C38.9351 5.32403 40 7.92583 40 11C40 12.1297 39.8379 13.264 39.5138 14.4029C39.1899 15.5418 38.7038 16.676 38.0554 17.8054C37.7685 17.4074 37.4399 17.0601 37.0696 16.7638C36.699 16.4676 36.2915 16.2224 35.8471 16.0279C36.301 15.1668 36.6436 14.3196 36.875 13.4862C37.1064 12.6529 37.2221 11.8242 37.2221 11C37.2221 8.70361 36.4258 6.75917 34.8333 5.16667C33.2408 3.57417 31.2964 2.77792 29 2.77792C27.2314 2.77792 25.6504 3.28486 24.2571 4.29875C22.8635 5.31264 21.4444 6.68528 20 8.41667C18.5556 6.67583 17.1365 5.30083 15.7429 4.29167C14.3496 3.2825 12.7686 2.77792 11 2.77792C8.70361 2.77792 6.75917 3.57417 5.16667 5.16667C3.57417 6.75917 2.77792 8.70361 2.77792 11C2.77792 11.8242 2.89361 12.6529 3.125 13.4862C3.35639 14.3196 3.69903 15.1668 4.15292 16.0279C3.70847 16.2224 3.30097 16.4724 2.93042 16.7779C2.56014 17.0835 2.23153 17.4353 1.94458 17.8333ZM0 31.6667V29.3196C0 28.1899 0.594861 27.2801 1.78458 26.5904C2.97458 25.9004 4.50931 25.5554 6.38875 25.5554C6.74986 25.5554 7.08792 25.5624 7.40292 25.5763C7.71764 25.5901 8.02778 25.6249 8.33333 25.6804C8.05556 26.1804 7.84722 26.699 7.70833 27.2362C7.56944 27.7732 7.5 28.3472 7.5 28.9583V31.6667H0ZM10 31.6667V28.9583C10 27.1528 10.9236 25.6944 12.7708 24.5833C14.6181 23.4722 17.0278 22.9167 20 22.9167C23 22.9167 25.4167 23.4722 27.25 24.5833C29.0833 25.6944 30 27.1528 30 28.9583V31.6667H10ZM32.5 31.6667V28.9583C32.5 28.3472 32.4375 27.7732 32.3125 27.2362C32.1875 26.699 31.9907 26.1804 31.7221 25.6804C32.0276 25.6249 32.3356 25.5901 32.6458 25.5763C32.9561 25.5624 33.2779 25.5554 33.6113 25.5554C35.5185 25.5554 37.0601 25.9004 38.2363 26.5904C39.4121 27.2801 40 28.1899 40 29.3196V31.6667H32.5ZM20 25.6946C17.9908 25.6946 16.3149 25.9862 14.9721 26.5696C13.6296 27.1529 12.9212 27.8797 12.8471 28.75V28.8888H27.1667V28.7221C27.0833 27.8704 26.3774 27.1529 25.0487 26.5696C23.7199 25.9862 22.0369 25.6946 20 25.6946ZM6.38875 24.1667C5.54625 24.1667 4.82639 23.8681 4.22917 23.2708C3.63194 22.6736 3.33333 21.9538 3.33333 21.1113C3.33333 20.2593 3.63194 19.5371 4.22917 18.9446C4.82639 18.3518 5.54625 18.0554 6.38875 18.0554C7.24069 18.0554 7.96292 18.3518 8.55542 18.9446C9.14819 19.5371 9.44458 20.2593 9.44458 21.1113C9.44458 21.9538 9.14819 22.6736 8.55542 23.2708C7.96292 23.8681 7.24069 24.1667 6.38875 24.1667ZM33.6113 24.1667C32.7685 24.1667 32.0485 23.8681 31.4513 23.2708C30.854 22.6736 30.5554 21.9538 30.5554 21.1113C30.5554 20.2593 30.854 19.5371 31.4513 18.9446C32.0485 18.3518 32.7685 18.0554 33.6113 18.0554C34.4629 18.0554 35.1851 18.3518 35.7779 18.9446C36.3704 19.5371 36.6667 20.2593 36.6667 21.1113C36.6667 21.9538 36.3704 22.6736 35.7779 23.2708C35.1851 23.8681 34.4629 24.1667 33.6113 24.1667ZM20 21.6667C18.6111 21.6667 17.4306 21.1806 16.4583 20.2083C15.4861 19.2361 15 18.0556 15 16.6667C15 15.25 15.4861 14.0625 16.4583 13.1042C17.4306 12.1458 18.6111 11.6667 20 11.6667C21.4167 11.6667 22.6042 12.1458 23.5625 13.1042C24.5208 14.0625 25 15.25 25 16.6667C25 18.0556 24.5208 19.2361 23.5625 20.2083C22.6042 21.1806 21.4167 21.6667 20 21.6667ZM20 14.4446C19.3797 14.4446 18.8543 14.6551 18.4238 15.0763C17.9932 15.4976 17.7779 16.0278 17.7779 16.6667C17.7779 17.2869 17.9932 17.8124 18.4238 18.2429C18.8543 18.6735 19.3797 18.8888 20 18.8888C20.6389 18.8888 21.169 18.6735 21.5904 18.2429C22.0115 17.8124 22.2221 17.2869 22.2221 16.6667C22.2221 16.0278 22.0115 15.4976 21.5904 15.0763C21.169 14.6551 20.6389 14.4446 20 14.4446Z" fill="#6EB7DE"/>
</svg>
