<svg width="40" height="38" viewBox="0 0 40 38" fill="none" xmlns="http://www.w3.org/2000/svg">
<path d="M14.3332 37.2637C13.0185 37.2637 11.8495 36.8887 10.8262 36.1387C9.80311 35.3887 9.06005 34.4026 8.597 33.1803C8.15255 33.8564 7.60394 34.382 6.95117 34.757C6.29839 35.132 5.55533 35.3195 4.722 35.3195C3.3795 35.3195 2.26144 34.8519 1.36783 33.9166C0.474499 32.9813 0.027832 31.8656 0.027832 30.5695C0.027832 29.2639 0.439777 28.1876 1.26367 27.3403C2.08783 26.4931 3.13422 26.037 4.40283 25.972C3.93978 25.4164 3.58089 24.7892 3.32617 24.0903C3.07172 23.3912 2.9445 22.6759 2.9445 21.9445C2.9445 20.8703 3.21992 19.8656 3.77075 18.9303C4.32158 17.9953 5.10172 17.2408 6.11117 16.6666C6.25005 17.0741 6.42825 17.5116 6.64575 17.9791C6.86325 18.4466 7.097 18.8517 7.347 19.1945C6.847 19.537 6.45353 19.9559 6.16658 20.4512C5.87964 20.9467 5.73617 21.4676 5.73617 22.0137C5.73617 23.6434 6.39811 24.662 7.722 25.0695C9.04617 25.4767 10.3148 25.8008 11.5278 26.0416L12.097 27.0137C11.7731 27.9581 11.5046 28.7428 11.2916 29.3678C11.0785 29.9928 10.972 30.5646 10.972 31.0833C10.972 31.9908 11.3077 32.7848 11.9791 33.4653C12.6505 34.1459 13.4445 34.4862 14.3612 34.4862C15.4723 34.4862 16.3889 34.0092 17.1112 33.0553C17.8334 32.1017 18.4213 30.9721 18.8749 29.6666C19.3285 28.361 19.6781 27.0416 19.9237 25.7083C20.1689 24.3749 20.3703 23.3426 20.5278 22.6112L23.222 23.347C22.972 24.5601 22.6758 25.9628 22.3333 27.5553C21.9907 29.1481 21.5023 30.6644 20.8678 32.1041C20.2337 33.5438 19.4003 34.7637 18.3678 35.7637C17.3356 36.7637 15.9907 37.2637 14.3332 37.2637ZM4.74992 32.5416C5.2963 32.5416 5.757 32.3541 6.132 31.9791C6.507 31.6041 6.6945 31.1434 6.6945 30.597C6.6945 30.0509 6.507 29.5903 6.132 29.2153C5.757 28.8403 5.2963 28.6528 4.74992 28.6528C4.20353 28.6528 3.74283 28.8403 3.36783 29.2153C2.99283 29.5903 2.80533 30.0509 2.80533 30.597C2.80533 31.1434 2.99283 31.6041 3.36783 31.9791C3.74283 32.3541 4.20353 32.5416 4.74992 32.5416ZM17.0278 25.0695C15.7684 23.9489 14.6226 22.9049 13.5903 21.9374C12.5578 20.9699 11.6712 20.0255 10.9303 19.1041C10.1898 18.1827 9.61811 17.2706 9.21533 16.3678C8.81255 15.4651 8.61117 14.5137 8.61117 13.5137C8.61117 11.8009 9.20603 10.3495 10.3957 9.1595C11.5855 7.96978 13.0369 7.37492 14.7499 7.37492C14.9535 7.37492 15.1434 7.38186 15.3195 7.39575C15.4953 7.40964 15.6759 7.43506 15.8612 7.472C15.6573 7.06478 15.5091 6.70367 15.4166 6.38867C15.3241 6.07395 15.2778 5.7545 15.2778 5.43034C15.2778 4.11561 15.7362 2.99992 16.6528 2.08325C17.5695 1.16659 18.6852 0.708252 19.9999 0.708252C21.3146 0.708252 22.4303 1.16659 23.347 2.08325C24.2637 2.99992 24.722 4.11561 24.722 5.43034C24.722 5.73589 24.6803 6.04839 24.597 6.36784C24.5137 6.68728 24.3609 7.05075 24.1387 7.45825C24.3239 7.42131 24.5045 7.39811 24.6803 7.38867C24.8564 7.3795 25.0463 7.37492 25.2499 7.37492C26.861 7.37492 28.2267 7.89117 29.347 8.92367C30.4676 9.95589 31.1203 11.2359 31.3053 12.7637C30.8795 12.7176 30.4142 12.6991 29.9095 12.7083C29.4051 12.7174 28.9352 12.7498 28.4999 12.8053C28.3424 12.037 27.9744 11.4028 27.3958 10.9028C26.8171 10.4028 26.1019 10.1528 25.2499 10.1528C24.2407 10.1528 23.4467 10.4376 22.8678 11.007C22.2892 11.5764 21.5092 12.4306 20.5278 13.5695H19.4303C18.4212 12.3751 17.6273 11.507 17.0487 10.9653C16.4698 10.4237 15.7035 10.1528 14.7499 10.1528C13.7869 10.1528 12.9859 10.4723 12.347 11.1112C11.7081 11.7501 11.3887 12.5509 11.3887 13.5137C11.3887 14.1712 11.5692 14.8448 11.9303 15.5345C12.2914 16.2245 12.8031 16.9606 13.4653 17.7428C14.1273 18.5253 14.9281 19.3517 15.8678 20.222C16.8078 21.0926 17.8564 22.0463 19.0137 23.0833L17.0278 25.0695ZM19.9999 7.37492C20.5463 7.37492 21.007 7.18742 21.382 6.81242C21.757 6.43742 21.9445 5.97673 21.9445 5.43034C21.9445 4.88422 21.757 4.42367 21.382 4.04867C21.007 3.67367 20.5463 3.48617 19.9999 3.48617C19.4535 3.48617 18.9928 3.67367 18.6178 4.04867C18.2428 4.42367 18.0553 4.88422 18.0553 5.43034C18.0553 5.97673 18.2428 6.43742 18.6178 6.81242C18.9928 7.18742 19.4535 7.37492 19.9999 7.37492ZM25.6249 37.2916C25.0138 37.2916 24.4096 37.1989 23.8124 37.0137C23.2152 36.8287 22.6388 36.5463 22.0833 36.1666C22.3333 35.8146 22.5833 35.4119 22.8333 34.9583C23.0833 34.5046 23.2962 34.0834 23.472 33.6945C23.8331 33.9628 24.1989 34.1619 24.5695 34.2916C24.9398 34.4213 25.3148 34.4862 25.6945 34.4862C26.6389 34.4862 27.4376 34.1459 28.0903 33.4653C28.7431 32.7848 29.0695 31.9862 29.0695 31.0695C29.0695 30.5231 28.9584 29.9398 28.7362 29.3195C28.5139 28.6989 28.2501 27.9258 27.9445 26.9999L28.5137 26.0278C29.7545 25.8056 31.0301 25.4908 32.3403 25.0833C33.6503 24.6758 34.3053 23.6573 34.3053 22.0278C34.3053 20.8426 33.8726 19.9676 33.007 19.4028C32.1412 18.8378 31.1851 18.5553 30.1387 18.5553C28.972 18.5553 27.597 18.7776 26.0137 19.222C24.4303 19.6664 22.5878 20.2359 20.4862 20.9303L19.7778 18.2362C21.9073 17.5417 23.8192 16.9584 25.5137 16.4862C27.2081 16.0139 28.7545 15.7778 30.1528 15.7778C31.9767 15.7778 33.5878 16.3241 34.9862 17.4166C36.3842 18.5091 37.0833 20.0369 37.0833 21.9999C37.0833 22.7313 36.9559 23.442 36.7012 24.132C36.4467 24.8217 36.088 25.4444 35.6249 25.9999C36.8749 26.0646 37.9166 26.5253 38.7499 27.382C39.5833 28.2384 39.9999 29.3101 39.9999 30.597C39.9999 31.8934 39.5531 33.0092 38.6595 33.9445C37.7662 34.8795 36.6481 35.347 35.3053 35.347C34.4906 35.347 33.7476 35.1595 33.0762 34.7845C32.4051 34.4095 31.8564 33.8841 31.4303 33.2083C30.9489 34.4305 30.1967 35.4166 29.1737 36.1666C28.1503 36.9166 26.9674 37.2916 25.6249 37.2916ZM35.3195 32.5695C35.8473 32.5695 36.2963 32.382 36.6666 32.007C37.0369 31.632 37.222 31.1713 37.222 30.6249C37.222 30.0971 37.0299 29.6342 36.6458 29.2362C36.2616 28.8378 35.8056 28.6387 35.2778 28.6387C34.7501 28.6387 34.2939 28.8309 33.9095 29.2153C33.5253 29.5995 33.3333 30.0555 33.3333 30.5833C33.3333 31.111 33.5323 31.5739 33.9303 31.972C34.3287 32.3703 34.7917 32.5695 35.3195 32.5695Z" fill="#6EB7DE"/>
</svg>
