<svg width="34" height="34" viewBox="0 0 34 34" fill="none" xmlns="http://www.w3.org/2000/svg">
<path d="M17.0074 33.6666C14.7066 33.6666 12.5445 33.2291 10.5212 32.3541C8.49784 31.4791 6.73145 30.287 5.222 28.7778C3.71284 27.2684 2.52075 25.5013 1.64575 23.4766C0.770752 21.4519 0.333252 19.2884 0.333252 16.9862C0.333252 14.6839 0.770752 12.5203 1.64575 10.4953C2.52075 8.47061 3.71284 6.70825 5.222 5.20825C6.73145 3.70825 8.49853 2.52075 10.5233 1.64575C12.548 0.770752 14.7114 0.333252 17.0137 0.333252C19.3159 0.333252 21.4795 0.770752 23.5045 1.64575C25.5292 2.52075 27.2916 3.70825 28.7916 5.20825C30.2916 6.70825 31.4791 8.47214 32.3541 10.4999C33.2291 12.5277 33.6666 14.6919 33.6666 16.9924C33.6666 19.2933 33.2291 21.4553 32.3541 23.4787C31.4791 25.502 30.2916 27.2666 28.7916 28.7724C27.2916 30.2783 25.5277 31.4705 23.4999 32.3491C21.4721 33.2274 19.308 33.6666 17.0074 33.6666ZM16.9999 30.8887C20.8771 30.8887 24.1613 29.5369 26.8524 26.8333C29.5433 24.1296 30.8887 20.8519 30.8887 16.9999C30.8887 16.861 30.8864 16.7291 30.882 16.6041C30.8773 16.4791 30.8749 16.3656 30.8749 16.2637C30.7174 17.0137 30.3387 17.6387 29.7387 18.1387C29.1387 18.6387 28.4295 18.8887 27.6112 18.8887H24.2778C23.3612 18.8887 22.5764 18.5623 21.9237 17.9095C21.2709 17.2567 20.9445 16.472 20.9445 15.5553V13.8887H14.2778V10.5553C14.2778 9.63867 14.6042 8.85395 15.257 8.20117C15.9098 7.54839 16.6945 7.222 17.6112 7.222H19.2778V6.61117C19.2778 6.10172 19.4606 5.54381 19.8262 4.93742C20.192 4.33103 20.6156 3.93061 21.097 3.73617C20.4489 3.54172 19.786 3.38895 19.1083 3.27783C18.4302 3.16672 17.7274 3.11117 16.9999 3.11117C13.148 3.11117 9.8702 4.45658 7.16659 7.14742C4.46297 9.83853 3.11117 13.1227 3.11117 16.9999H10.0553C11.8887 16.9999 13.4581 17.6527 14.7637 18.9583C16.0692 20.2638 16.722 21.8333 16.722 23.6666V25.3333H11.722V29.7778C12.537 30.1389 13.3838 30.4144 14.2624 30.6041C15.141 30.7938 16.0535 30.8887 16.9999 30.8887Z" fill="#6EB7DE"/>
</svg>
