<svg width="536" height="530" viewBox="0 0 536 530" fill="none" xmlns="http://www.w3.org/2000/svg">
<g filter="url(#filter0_d_261_475)">
<path d="M536 265C536 411.354 417.363 530 271.019 530C263.29 530 255.646 529.673 248.087 529.02C226.825 527.201 206.28 522.86 186.751 516.317C126.644 496.168 76.1484 455.054 43.9528 401.663C19.8843 361.757 6.03857 314.995 6.03857 265C6.03857 118.646 124.676 0 271.019 0C417.363 0 536 118.646 536 265Z" fill="black"/>
<path d="M266.757 379.028C314.427 379.028 353.071 340.381 353.071 292.708C353.071 245.034 314.427 206.387 266.757 206.387C219.087 206.387 180.443 245.034 180.443 292.708C180.443 340.381 219.087 379.028 266.757 379.028Z" fill="#2492CD"/>
<path d="M262.703 240.903C270.041 240.569 277.941 247.217 276.75 254.951C275.856 260.756 265.098 267.83 255.758 262.054C246.797 256.513 249.264 241.515 262.703 240.903Z" fill="white"/>
<path d="M226.085 249.742C229.29 249.452 230.746 253.201 229.084 256.214C228.015 258.152 218.786 263.356 217.72 259.055C216.862 255.595 223.226 250.001 226.085 249.742Z" fill="white"/>
<path d="M314.788 253.215C323.086 251.185 330.144 273.911 317.945 267.105C311.212 263.349 311.67 253.978 314.788 253.215Z" fill="white"/>
<path d="M52.7484 247.063C54.5016 246.79 56.9153 253.164 56.634 254.149C55.7493 257.248 19.1288 272.192 13.2065 272.436C17.4731 269.564 45.2285 250.009 47.2628 249.806C53.0508 249.23 50.054 255.278 51.377 255.749C54.8551 256.99 54.2049 249.974 52.977 249.121C51.3486 247.988 44.1723 250.969 52.7484 247.063Z" fill="#FF6363"/>
<path d="M183.717 169.345C179.583 170.757 158.953 180.363 153.774 183.06C138.882 190.815 122.479 202.111 107.604 210.49C94.8623 212.604 57.6307 210.071 55.0341 210.49C53.9753 210.661 43.7649 215.719 43.8343 216.662C52.6901 220.739 61.0432 226.105 69.8909 230.605C73.3724 232.376 76.7644 230.893 67.3766 239.291C64.1978 242.135 58.78 245.095 58.0054 245.692C57.3685 246.183 56.389 245.971 56.6341 247.063C61.9754 252.89 59.9467 258.114 66.4624 257.121C69.4705 256.663 70.9888 251.774 74.9193 257.578C76.8397 251.807 78.8099 245.961 79.9478 239.977C108.103 220.787 100.845 228.137 90.9189 253.464C109.173 244.601 106.061 238.448 108.061 236.091L184.859 189.003C196.26 180.93 200.19 174.48 208.859 164.088C200.475 165.588 191.757 166.599 183.717 169.345ZM118.347 207.747C124.818 203.649 131.445 199.813 138.003 195.861C149.688 207.411 120.59 222.885 118.347 207.747Z" fill="#CFCFCF"/>
<path d="M90.919 253.464L79.2621 274.493C54.3805 287.288 30.5592 302.023 6.1211 315.638L4.97827 314.952C24.4472 302.461 45.9441 292.975 65.0911 279.979C65.4392 279.743 65.797 280.203 66.0053 280.436C68.2981 278.79 68.4115 276.973 68.5196 276.779C69.8661 274.363 70.3401 271.994 71.2623 269.464C72.6762 265.587 73.6164 261.494 74.9194 257.578C76.8398 251.807 78.81 245.961 79.9478 239.977C108.103 220.787 100.846 228.137 90.919 253.464Z" fill="#CFCFCF"/>
<path d="M118.347 207.747C124.818 203.65 131.446 199.813 138.004 195.861C149.688 207.411 120.591 222.885 118.347 207.747Z" fill="black"/>
<path d="M0.000103727 241.708C0.000454767 241.254 -0.000253365 240.79 0.000103727 240.336C7.55145 236.789 34.3479 219.943 37.2563 218.849C38.129 218.521 39.5745 217.758 39.7705 219.078C40.1066 221.341 3.89838 238.643 0.000103727 241.708Z" fill="white"/>
<path d="M121.826 176.79C123.816 176.616 117.739 180.315 114.512 182.276C101.054 190.454 86.9692 197.84 73.1411 205.363C88.5173 194.479 105.753 186.584 121.826 176.79Z" fill="white"/>
<path d="M102.169 290.167C103.71 290.119 101.052 291.829 100.798 291.996C85.9142 301.715 69.3302 309.392 53.9417 318.283C69.1991 307.603 86.1523 299.629 102.169 290.167Z" fill="#C8C8C8"/>
<path d="M141.482 233.479C141.77 233.435 142.079 233.426 142.168 233.707C126.551 243.277 110.459 252.573 94.1692 261.137C99.5511 257.309 138.771 233.887 141.482 233.479Z" fill="white"/>
<path d="M405.359 119.628C393.838 131.808 379.513 144.324 364.638 152.144C337.116 166.613 322.601 160.576 344.119 133.36C336.495 111.676 352.236 90.1852 375.37 91.5313C372.382 91.8698 371.776 93.278 369.373 94.3725C360.99 98.1897 355.496 97.3347 349.485 106.211C348.583 107.544 346.988 110.153 346.96 111.736C345.13 113.209 345.153 116.538 345.066 118.681C344.643 129.059 348.791 138.58 355.641 146.146C370.255 142.088 395.457 121.464 402.518 108.579C407.257 99.9304 404.934 95.7574 394.942 98.7922C394.751 98.6091 392.866 98.8097 393.679 96.8981C395.751 96.7466 403.474 92.4543 408.358 95.3196C414.263 98.7843 406.87 108.743 404.096 112.367C394.718 124.618 372.236 143.162 358.008 148.987C352.225 151.355 338.563 156.329 340.962 144.725C341.729 141.02 346.865 135.241 344.593 135.097C343.816 135.048 337.714 145.838 337.49 148.829C336.628 160.35 353.632 152.927 358.956 150.566C375.29 143.32 393.468 128.431 404.728 114.577C419.523 96.372 417.783 85.8689 392.416 96.2667H390.838C390.84 96.0927 389.983 95.6697 389.891 95.6353C424.234 80.0981 426.501 95.9109 405.359 119.628Z" fill="white"/>
<path d="M365.514 285.523C330.341 322.707 286.607 360.919 241.194 384.794C157.172 428.968 112.857 410.537 178.552 327.448C155.274 261.245 196.484 202.278 267.112 206.387C257.989 207.421 262.987 205.078 255.65 208.42C230.059 220.073 213.286 217.463 194.935 244.562C192.179 248.631 187.312 256.596 187.225 261.428C183.995 266.066 181.709 276.09 181.443 282.632C180.151 314.316 192.815 343.382 213.728 366.482C258.343 354.092 335.285 291.128 356.841 251.79C371.309 225.387 364.216 212.648 333.711 221.913C333.13 221.354 327.373 221.966 329.856 216.13C336.181 215.668 359.76 202.563 374.67 211.311C392.698 221.888 370.128 252.293 361.659 263.356C333.028 300.759 264.392 357.371 220.956 375.156C203.298 382.386 161.588 397.57 168.914 362.145C171.254 350.833 186.934 333.189 179.997 332.749C177.626 332.599 158.997 365.541 158.313 374.674C155.682 409.847 207.594 387.184 223.847 379.975C273.717 357.856 329.211 312.4 363.587 270.103C408.757 214.524 403.444 182.458 326.002 214.202H321.183C321.188 213.671 318.573 212.38 318.292 212.275C423.14 164.84 430.059 213.116 365.514 285.523Z" fill="white"/>
<path d="M389.891 95.6354C389.983 95.6698 390.84 96.0928 390.838 96.2668C380.461 111.107 363.477 120.07 345.066 118.681C345.153 116.538 345.13 113.209 346.96 111.736C349.416 109.759 352.16 111.78 358.798 107C362.16 104.579 367.821 98.4102 369.373 94.3726C371.776 93.2781 372.382 91.8699 375.37 91.5314C383.844 92.0244 384.828 93.7441 389.891 95.6354Z" fill="#CFCFCF"/>
<path d="M364.638 152.144C379.513 144.324 393.838 131.808 405.359 119.628C405.898 140.812 385.287 158.327 364.638 152.144Z" fill="#CFCFCF"/>
<path d="M392.417 96.2667C392.611 96.6667 393.272 96.9279 393.679 96.8981C392.866 98.8097 394.751 98.6091 394.942 98.7923C397.935 101.671 400.561 104.913 402.518 108.579C395.457 121.464 370.255 142.088 355.641 146.146C348.791 138.58 344.643 129.059 345.066 118.681C363.477 120.07 380.461 111.107 390.838 96.2667L392.417 96.2667Z" fill="#CFCFCF"/>
<path d="M369.373 94.3726C367.821 98.4101 362.16 104.579 358.798 107C352.16 111.78 349.416 109.759 346.96 111.736C346.989 110.153 348.583 107.544 349.486 106.211C355.496 97.3347 360.991 98.1898 369.373 94.3726Z" fill="#CFCFCF"/>
<path d="M265.666 116.152L266.455 122.308C267.819 124.457 278.52 122.97 266.613 124.676L265.35 130.99L264.561 125.15C257.364 122.482 257.912 124.925 264.561 122.308L265.666 116.152Z" fill="#F0F0F0"/>
<path d="M208.833 89.1552L209.622 95.3111C210.986 97.46 221.687 95.9727 209.78 97.6788L208.517 103.993L207.728 98.1524C200.531 95.4846 201.08 97.9276 207.728 95.3111L208.833 89.1552Z" fill="#F0F0F0"/>
<path d="M402.063 340.656L402.852 346.812C404.216 348.961 414.917 347.474 403.01 349.18L401.747 355.494L400.958 349.654C393.761 346.986 394.31 349.429 400.958 346.812L402.063 340.656Z" fill="#F0F0F0"/>
<path d="M135.661 307.976L136.451 314.132C137.815 316.28 148.516 314.793 136.608 316.499L135.346 322.813L134.557 316.973C127.36 314.305 127.908 316.748 134.557 314.132L135.661 307.976Z" fill="#F0F0F0"/>
<path d="M448.835 198.565L450.411 210.858C453.135 215.149 474.503 212.179 450.726 215.585L448.205 228.193L446.629 216.531C432.258 211.204 433.353 216.082 446.629 210.858L448.835 198.565Z" fill="#F0F0F0"/>
<path d="M299.65 434.437L301.226 446.729C303.95 451.02 325.318 448.05 301.541 451.457L299.02 464.064L297.444 452.402C283.073 447.075 284.168 451.953 297.444 446.729L299.65 434.437Z" fill="#F0F0F0"/>
</g>
<defs>
<filter id="filter0_d_261_475" x="-4" y="0" width="544" height="538" filterUnits="userSpaceOnUse" color-interpolation-filters="sRGB">
<feFlood flood-opacity="0" result="BackgroundImageFix"/>
<feColorMatrix in="SourceAlpha" type="matrix" values="0 0 0 0 0 0 0 0 0 0 0 0 0 0 0 0 0 0 127 0" result="hardAlpha"/>
<feOffset dy="4"/>
<feGaussianBlur stdDeviation="2"/>
<feComposite in2="hardAlpha" operator="out"/>
<feColorMatrix type="matrix" values="0 0 0 0 0 0 0 0 0 0 0 0 0 0 0 0 0 0 0.25 0"/>
<feBlend mode="normal" in2="BackgroundImageFix" result="effect1_dropShadow_261_475"/>
<feBlend mode="normal" in="SourceGraphic" in2="effect1_dropShadow_261_475" result="shape"/>
</filter>
</defs>
</svg>
