<svg width="29" height="29" viewBox="0 0 29 29" fill="none" xmlns="http://www.w3.org/2000/svg">
<path d="M3.91667 24.6945C2.69278 23.4445 1.73403 22.0001 1.04042 20.3612C0.346806 18.7223 0 17.037 0 15.3053C0 13.3703 0.347222 11.5578 1.04167 9.86785C1.73611 8.17813 2.80556 6.61104 4.25 5.1666C5.22222 4.19437 6.42819 3.37035 7.86792 2.69451C9.30792 2.0184 11.0071 1.48826 12.9654 1.1041C14.9238 0.71993 17.146 0.481458 19.6321 0.388681C22.1182 0.296181 24.889 0.361041 27.9446 0.583263C28.1668 3.56465 28.2408 6.29618 28.1667 8.77785C28.0925 11.2592 27.8679 13.4906 27.4929 15.472C27.1179 17.4537 26.5901 19.1858 25.9096 20.6683C25.229 22.151 24.3888 23.3912 23.3888 24.3887C21.9538 25.824 20.4144 26.8958 18.7708 27.6041C17.1272 28.3124 15.3981 28.6666 13.5833 28.6666C11.7036 28.6666 9.94431 28.3309 8.30542 27.6595C6.66653 26.9884 5.20361 26.0001 3.91667 24.6945ZM8.33333 24.472C9.06472 24.9442 9.87722 25.2984 10.7708 25.5345C11.6644 25.7706 12.6013 25.8887 13.5813 25.8887C14.9901 25.8887 16.3658 25.5994 17.7083 25.0208C19.0508 24.4422 20.2915 23.5741 21.4304 22.4166C22.0971 21.7499 22.6921 20.8634 23.2154 19.757C23.7385 18.6503 24.1736 17.3031 24.5208 15.7153C24.8681 14.1273 25.1111 12.294 25.25 10.2153C25.3889 8.13646 25.3982 5.78687 25.2779 3.1666C23.0835 3.11104 21.0117 3.12729 19.0625 3.21535C17.1133 3.30312 15.3286 3.49979 13.7083 3.80535C12.0881 4.1109 10.6436 4.52757 9.375 5.05535C8.10639 5.58313 7.06931 6.2591 6.26375 7.08326C5.0693 8.29632 4.18972 9.5509 3.625 10.847C3.06028 12.1434 2.77792 13.4444 2.77792 14.7499C2.77792 16.1852 3.07181 17.5949 3.65958 18.9791C4.24764 20.3633 4.89819 21.4351 5.61125 22.1945C6.98153 19.639 8.67125 17.2987 10.6804 15.1737C12.6899 13.0487 14.889 11.3519 17.2779 10.0833C15.0001 12.0555 13.1135 14.2198 11.6179 16.5762C10.1226 18.9328 9.02778 21.5648 8.33333 24.472Z" fill="#6EB7DE"/>
</svg>
