<svg width="346" height="107" viewBox="0 0 346 107" fill="none" xmlns="http://www.w3.org/2000/svg">
<path d="M25.5292 57.567L0.5 52.5612L16.769 43.1752C22.2754 24.6536 39.5039 17.1031 47.4298 15.6431L45.5526 26.2805C27.5316 30.7858 24.6949 49.0154 25.5292 57.567Z" fill="white"/>
<path d="M49.9328 25.0292L55.5644 0L64.3246 16.269C84.348 21.7754 91.0225 39.4211 91.8568 47.5556L81.2193 45.0526C78.2158 28.5333 59.1102 24.8207 49.9328 25.0292Z" fill="white"/>
<path d="M62.4473 80.7192C81.9701 74.2116 83.9308 57.5671 82.4707 50.0583L107.5 55.0642L91.2309 63.8244C86.7257 81.8455 68.4961 89.688 59.9444 91.3566L62.4473 80.7192Z" fill="white"/>
<path d="M53.0614 107L57.4416 81.9709C38.4193 84.4738 29.0751 69.6649 26.7807 61.9475L15.5176 60.0703C18.0205 80.0937 35.7495 89.2711 44.3012 91.3569L53.0614 107Z" fill="white"/>
<path d="M60.5702 74.4619C55.5644 75.0876 53.6872 75.0876 53.6872 75.0876C53.6872 75.0876 50.5585 75.0876 46.8041 74.4619" stroke="#CFCFCF" stroke-width="0.2"/>
<path d="M76.2135 54.4387C75.5877 57.5674 64.6292 60.0703 53.0614 60.0703C41.1724 60.0703 32.4123 57.5674 31.1608 54.4387" stroke="#CFCFCF" stroke-width="0.8" stroke-linecap="round"/>
<path d="M74.962 59.4446C73.0848 62.5732 65.2549 64.4504 53.6871 64.4504C41.7981 64.4504 33.038 62.5732 32.4123 59.4446" stroke="#CFCFCF" stroke-width="0.7" stroke-linecap="round"/>
<path d="M73.7105 63.8247C70.5819 66.3276 65.8807 68.2048 54.3129 68.2048C42.4238 68.2048 36.1667 66.9534 33.6638 63.8247" stroke="#CFCFCF" stroke-width="0.7" stroke-linecap="round"/>
<path d="M69.9562 68.2046C65.576 70.0818 63.0731 71.3332 53.6872 71.3332C46.1784 71.3332 41.1725 70.7075 37.4182 68.2046" stroke="#CFCFCF" stroke-width="0.6" stroke-linecap="round"/>
<path d="M66.8275 71.3333C62.4473 73.2104 59.9444 73.2104 54.3128 73.2104C48.0555 73.2104 45.5526 73.2104 41.1725 71.3333" stroke="#CFCFCF" stroke-width="0.5" stroke-linecap="round"/>
<path d="M57.4414 32.5381C62.5724 33.8073 60.2275 35.6667 53.687 35.6667C46.8041 35.6667 44.8709 33.7424 49.3069 32.5381" stroke="#CFCFCF" stroke-width="0.5" stroke-linecap="round"/>
<path d="M63.0733 34.4153C68.7047 36.2925 60.1056 38.1697 53.5651 38.1697C46.6821 38.1697 39.2953 36.2925 43.6754 34.4153" stroke="#CFCFCF" stroke-width="0.6" stroke-linecap="round"/>
<path d="M68.0791 36.9182C71.2078 40.0469 60.4006 41.9241 53.6874 41.9241C46.8045 41.9241 35.5412 40.0469 39.2956 36.9182" stroke="#CFCFCF" stroke-width="0.7" stroke-linecap="round"/>
<path d="M71.8336 40.6724C71.8336 44.4267 62.4475 45.6782 53.0616 45.6782C43.6757 45.6782 34.9156 43.801 35.5412 40.6724" stroke="#CFCFCF" stroke-width="0.7" stroke-linecap="round"/>
<path d="M74.3364 45.0525C74.3364 48.8069 64.6292 50.6841 53.0614 50.6841C41.1724 50.6841 32.4124 48.1811 33.038 45.0525" stroke="#CFCFCF" stroke-width="0.8" stroke-linecap="round"/>
<path d="M75.5878 49.4326C74.9621 53.187 64.6291 55.0642 53.0614 55.0642C41.1723 55.0642 31.7866 53.187 31.7866 50.0583" stroke="#CFCFCF" stroke-width="0.8" stroke-linecap="round"/>
<path d="M51.8098 33.1636C52.4356 33.5808 54.9386 33.7896 55.5643 33.1638C56.51 32.2181 50.4221 32.2388 51.8098 33.1636Z" stroke="#CFCFCF" stroke-width="0.5"/>
<path d="M127.438 74V39.6875H146.586V44.4219H133.016V53.0234H146.586V57.9219H133.016V69.0078H146.586V74H127.438ZM152.984 74V39.6875H158.562V69.0078H171.031V74H152.984ZM175.578 74V39.6875H194.727V44.4219H181.156V53.0234H194.727V57.9219H181.156V69.0078H194.727V74H175.578ZM212.023 75.3359L196.719 39.6875H202.508L210.195 57.9688C210.648 59.0312 211.023 60.0156 211.32 60.9219C211.617 61.8125 211.852 62.6641 212.023 63.4766C212.227 62.6172 212.484 61.7266 212.797 60.8047C213.109 59.8828 213.477 58.9375 213.898 57.9688L221.562 39.6875H227.328L212.023 75.3359ZM230.797 74V39.6875H249.945V44.4219H236.375V53.0234H249.945V57.9219H236.375V69.0078H249.945V74H230.797ZM256.344 74V38.3281L278.141 59.3047C278.734 59.8984 279.336 60.5312 279.945 61.2031C280.555 61.875 281.195 62.6328 281.867 63.4766V39.6875H287.023V75.3359L264.781 53.9844C264.188 53.4062 263.609 52.7969 263.047 52.1562C262.5 51.5156 261.977 50.8438 261.477 50.1406V74H256.344ZM309.125 67.7656C309.703 68.4531 310.258 68.9531 310.789 69.2656C311.32 69.5781 311.883 69.7344 312.477 69.7344C313.57 69.7344 314.336 69.375 314.773 68.6562C315.227 67.9375 315.453 66.6016 315.453 64.6484V39.6875H320.984V66.4531C320.984 69.3594 320.344 71.5 319.062 72.875C317.781 74.2344 315.781 74.9141 313.062 74.9141C311.562 74.9141 310.203 74.625 308.984 74.0469C307.781 73.4688 306.641 72.5703 305.562 71.3516L309.125 67.7656ZM333.008 55.3203C333.555 53.8516 334.273 52.7656 335.164 52.0625C336.07 51.3594 337.188 51.0078 338.516 51.0078C339.234 51.0078 339.938 51.0938 340.625 51.2656C341.328 51.4375 342.016 51.6875 342.688 52.0156L340.859 56.3281C340.422 56.0156 339.945 55.7891 339.43 55.6484C338.93 55.4922 338.367 55.4141 337.742 55.4141C336.055 55.4141 334.844 56.0938 334.109 57.4531C333.375 58.7969 333.008 61.0625 333.008 64.25V74H327.922V51.7344H333.008V55.3203Z" fill="#F0F0F0"/>
</svg>
