<svg width="189" height="189" viewBox="0 0 189 189" fill="none" xmlns="http://www.w3.org/2000/svg">
<path d="M43.9916 101.646L0 92.8508L28.5945 76.3596C38.2727 43.8169 68.5536 30.5507 82.4843 27.9854L79.1849 46.6754C47.5109 54.5912 42.5252 86.6208 43.9916 101.646Z" fill="#0F143B"/>
<path d="M86.8833 44.4766L96.7814 0.5L112.178 29.0848C147.372 38.7596 159.103 69.7632 160.569 84.0556L141.873 79.6579C136.594 50.6333 103.014 44.1101 86.8833 44.4766Z" fill="#0F143B"/>
<path d="M108.879 142.325C143.193 130.891 146.639 101.646 144.073 88.4532L188.064 97.2486L159.47 112.64C151.551 144.304 119.511 158.083 104.48 161.015L108.879 142.325Z" fill="#2492CD"/>
<path d="M92.3823 188.5L100.081 144.523C66.6472 148.921 50.2237 122.902 46.1911 109.342L26.3949 106.044C30.7941 141.225 61.9548 157.35 76.9853 161.015L92.3823 188.5Z" fill="#2492CD"/>
<path d="M105.58 131.33C96.7815 132.43 93.4821 132.43 93.4821 132.43C93.4821 132.43 87.9831 132.43 81.3844 131.33" stroke="#2492CD" stroke-width="0.44"/>
<path d="M133.075 96.1492C131.975 101.646 112.714 106.044 92.3823 106.044C71.486 106.044 56.0892 101.646 53.8896 96.1492" stroke="#2492CD" stroke-width="1.76" stroke-linecap="round"/>
<path d="M130.875 104.944C127.575 110.442 113.814 113.74 93.482 113.74C72.5857 113.74 57.1889 110.442 56.0891 104.944" stroke="#2492CD" stroke-width="1.54" stroke-linecap="round"/>
<path d="M128.676 112.64C123.177 117.038 114.914 120.336 94.582 120.336C73.6857 120.336 62.6881 118.137 58.2889 112.64" stroke="#2492CD" stroke-width="1.54" stroke-linecap="round"/>
<path d="M122.077 120.336C114.378 123.635 109.979 125.833 93.4821 125.833C80.2846 125.833 71.4863 124.734 64.8876 120.336" stroke="#2492CD" stroke-width="1.32" stroke-linecap="round"/>
<path d="M116.578 125.833C108.879 129.132 104.48 129.132 94.5819 129.132C83.584 129.132 79.1849 129.132 71.4863 125.833" stroke="#2492CD" stroke-width="1.1" stroke-linecap="round"/>
<path d="M100.081 57.6697C109.099 59.8997 104.978 63.1668 93.482 63.1668C81.3845 63.1668 77.9868 59.7857 85.7835 57.6697" stroke="#131737" stroke-width="1.1" stroke-linecap="round"/>
<path d="M109.979 60.9678C119.877 64.266 104.763 67.5643 93.2677 67.5643C81.1702 67.5643 68.187 64.266 75.8856 60.9678" stroke="#131737" stroke-width="1.32" stroke-linecap="round"/>
<path d="M118.778 65.3655C124.277 70.8626 105.282 74.1608 93.4827 74.1608C81.3852 74.1608 61.5888 70.8626 68.1876 65.3655" stroke="#131737" stroke-width="1.54" stroke-linecap="round"/>
<path d="M125.377 71.962C125.377 78.5585 108.88 80.7574 92.3827 80.7574C75.886 80.7574 60.4891 77.4591 61.5888 71.962" stroke="#131737" stroke-width="1.54" stroke-linecap="round"/>
<path d="M129.775 79.658C129.775 86.2545 112.714 89.5527 92.3823 89.5527C71.486 89.5527 56.0894 85.155 57.1891 79.658" stroke="#131737" stroke-width="1.76" stroke-linecap="round"/>
<path d="M131.975 87.3539C130.875 93.9504 112.714 97.2486 92.3825 97.2486C71.4863 97.2486 54.9897 93.9504 54.9897 88.4533" stroke="#131737" stroke-width="1.76" stroke-linecap="round"/>
<path d="M90.1827 58.7686C91.2825 59.5016 95.6819 59.8684 96.7816 58.7689C98.4438 57.1072 87.7436 57.1436 90.1827 58.7686Z" stroke="#131737" stroke-width="1.1"/>
</svg>
