<svg width="380" height="86" viewBox="0 0 380 86" fill="none" xmlns="http://www.w3.org/2000/svg">
<path d="M0.0438845 0.884121C-0.535063 1.92694 4.79125 57.8917 5.60178 58.7028C5.94915 59.0504 13.1281 58.8186 21.5807 58.3552L36.9807 57.3123L39.9913 29.5038C41.6123 14.2091 42.7702 1.3476 42.5386 0.768253C41.9597 -0.274567 0.854411 -0.274567 0.0438845 0.884121ZM33.3913 18.728C32.9281 22.7834 32.0018 30.6625 31.307 36.4559L30.0334 46.8841L22.7386 47.9269C18.8018 48.5063 15.2123 48.6222 14.8649 48.2746C13.707 47.1159 9.42283 15.0201 10.2334 14.0932C11.0439 13.398 15.6755 12.8186 31.5386 11.7758C34.086 11.5441 34.2018 11.7758 33.3913 18.728Z" fill="white"/>
<path d="M86.1914 14.3249C86.1914 18.1486 86.423 18.4962 89.6651 18.4962C92.7914 18.4962 93.1388 18.1486 93.1388 15.0202C93.1388 12.8186 92.5598 11.5441 91.5177 11.5441C90.5914 11.5441 89.0861 11.1965 88.044 10.8489C86.5388 10.2695 86.1914 10.9647 86.1914 14.3249ZM91.5177 15.2519C91.6335 16.6423 91.0546 17.3375 89.4335 17.3375C87.5809 17.3375 87.3493 16.9899 88.3914 15.7154C89.4335 14.4408 89.4335 13.9773 88.2756 13.398C87.4651 13.0504 87.8125 12.8186 88.9704 13.0504C90.244 13.1663 91.2861 14.2091 91.5177 15.2519Z" fill="white"/>
<path d="M54.1174 20.466C49.4858 21.0453 49.6016 20.5819 52.6121 40.7431C55.97 62.6423 55.6226 61.5995 59.3279 61.136L62.4542 60.7884L61.9911 46.7683L61.6437 32.7481L71.1384 30.8942C76.4647 29.8514 80.9805 28.6927 81.3279 28.461C81.5595 28.1133 81.5595 26.7229 81.2121 25.2166C80.5174 22.6675 80.17 22.5516 70.5595 22.8992C62.2226 23.2468 60.7174 23.0151 60.7174 21.5088C60.7174 20.466 60.0226 19.7708 59.3279 19.8867C58.5174 19.8867 56.0858 20.2343 54.1174 20.466Z" fill="white"/>
<path d="M158.907 20.466C155.086 21.0453 155.086 20.466 157.981 39.7002C161.455 62.1788 161.107 61.136 164.465 60.4408L167.476 59.8614L167.128 47L166.665 34.2544L175.002 32.9798C181.949 31.937 183.455 31.937 184.033 33.3274C184.381 34.1385 184.612 40.5113 184.612 47.4635C184.612 59.1662 184.728 60.0932 187.044 60.7884C188.318 61.2519 189.823 61.2519 190.17 60.7884C190.633 60.3249 191.56 51.6347 192.139 41.4383L193.297 22.8992L179.633 23.7103C166.318 24.5214 165.855 24.4055 165.276 22.0881C164.928 20.6977 164.118 19.7708 163.307 19.7708C162.612 19.8866 160.644 20.2342 158.907 20.466Z" fill="white"/>
<path d="M215.181 21.3929C205.223 23.3627 204.412 23.7103 205.107 26.4911C205.686 28.5768 206.612 28.9244 213.096 28.9244H220.507V32.8639C220.507 36.6876 220.391 36.9193 216.802 36.4559C214.717 36.2241 209.738 35.6448 205.802 35.413L198.507 34.7178V46.8841V59.0503H216.338C233.823 59.0503 234.286 58.9344 235.096 56.5012C235.559 55.1108 235.444 53.7203 234.865 53.6045C231.391 52.3299 230.696 50.3601 229.191 36.9193C228.265 29.0402 227.454 21.8564 227.454 21.0453C227.454 19.4231 224.675 19.4231 215.181 21.3929ZM220.507 48.0428V53.2569H213.675C206.265 53.2569 205.454 52.5616 205.454 46.1888V42.8286H212.981H220.507V48.0428Z" fill="white"/>
<path d="M242.738 20.466C238.454 20.9294 237.875 21.277 238.454 23.4785C238.802 24.869 240.307 33.675 241.696 43.1763C243.202 52.5617 244.823 60.5566 245.17 60.9042C245.517 61.3677 247.138 61.3677 248.644 60.9042L251.423 60.209L250.844 46.5365L250.265 32.7481L259.875 30.8942C265.202 29.8513 269.717 28.6927 269.949 28.4609C270.181 28.2292 270.065 26.8387 269.717 25.3325C269.023 22.6675 268.675 22.5516 259.296 22.8992C250.96 23.2468 249.454 23.0151 249.454 21.5088C249.454 20.466 249.107 19.7707 248.644 19.8866C248.065 20.0025 245.517 20.2342 242.738 20.466Z" fill="white"/>
<path d="M100.086 21.5088C100.086 22.0881 101.128 30.6624 102.402 40.5113C103.675 50.3602 104.718 58.5869 104.718 58.7027C104.718 58.8186 109.812 59.1662 116.065 59.2821L127.296 59.6297L126.833 66.0025C126.718 69.4786 126.37 72.4912 126.254 72.607C126.023 72.8388 123.36 73.1864 120.233 73.534C107.496 75.0403 107.033 75.1561 107.033 78.1687V80.9496L120.696 80.2544C128.107 79.9068 134.36 79.5592 134.36 79.4433C134.475 79.4433 134.823 66.6977 135.286 51.2871L135.981 23.3627L129.381 22.6675C113.981 21.1612 100.086 20.5818 100.086 21.5088ZM126.718 40.5113V51.0554L119.539 50.7078L112.244 50.3602L110.854 43.408C110.16 39.5844 109.233 35.0655 108.886 33.2116L108.307 30.0831H117.454H126.718V40.5113Z" fill="white"/>
<path d="M324.023 21.7405C323.212 22.3198 323.675 27.9974 325.76 40.743C327.381 50.7077 329.118 59.282 329.581 59.6296C329.928 60.0931 331.318 60.0931 332.475 59.7455C334.444 59.1662 334.56 58.0075 334.212 47.4634C333.633 34.4861 333.402 34.8337 343.707 32.9798L347.875 32.1687V46.3047V60.3248L351.118 59.9772C354.012 59.6296 354.244 59.282 354.475 53.2568C354.707 49.7808 355.054 44.2191 355.518 40.8589L356.096 34.8337L361.886 33.675C365.128 32.9798 367.907 32.4004 368.139 32.4004C368.486 32.4004 368.718 38.6573 368.718 46.3047V60.209H372.539H376.36L377.633 41.9017C378.328 31.9369 378.791 23.5944 378.791 23.4785C378.675 23.3626 373.928 23.8261 368.254 24.5213C359.107 25.5641 357.718 25.5641 356.56 23.8261C355.286 22.2039 354.012 22.0881 347.181 23.1309C335.833 24.7531 332.823 24.6372 332.823 22.5515C332.823 20.6976 326.454 20.1183 324.023 21.7405Z" fill="white"/>
<path d="M292.181 22.204C291.717 23.8262 289.286 59.7455 289.517 60.0932C290.096 60.6725 321.128 58.471 321.707 57.7758C321.939 57.544 321.591 49.8967 320.896 40.743L319.739 24.2896H316.381H313.139V37.4987C313.139 52.3299 313.37 52.0982 303.065 52.0982H298.086V37.0352V21.9722H295.191C293.57 21.9722 292.296 22.0881 292.181 22.204Z" fill="white"/>
<path d="M84.6859 41.9017C83.6438 51.5188 82.949 59.6297 83.0648 59.8614C83.2964 59.9773 85.2648 60.3249 87.4648 60.4407L91.4017 60.7883L91.749 42.481L92.0964 24.2896H89.3175C86.7701 24.2896 86.6543 24.8689 84.6859 41.9017Z" fill="white"/>
<path d="M145.823 26.8387C145.591 28.345 144.665 36.34 143.739 44.7984L142.233 59.9773L145.591 60.6725C147.444 61.0201 149.412 61.3677 149.991 61.3677C150.57 61.3677 151.033 53.0251 151.033 42.8286C151.033 25.1007 150.918 24.2896 148.718 24.2896C147.328 24.2896 146.286 25.2166 145.823 26.8387Z" fill="white"/>
<path d="M274.928 26.2594C274.928 27.4181 274.118 35.2972 273.191 43.8715C272.265 52.4458 271.57 59.5138 271.686 59.6297C271.918 59.7456 273.654 60.209 275.623 60.5566C278.981 61.2519 279.328 61.0201 280.023 57.6599C280.37 55.6901 280.718 47.4634 280.718 39.2367V24.2896H277.823C275.854 24.2896 274.928 24.9849 274.928 26.2594Z" fill="white"/>
<path d="M144.086 73.1863C144.086 79.0957 144.318 80.0226 145.591 78.5163C148.023 75.5037 151.149 74.9244 151.844 77.5894C152.307 79.2115 153.349 79.9067 155.549 79.7909C158.212 79.5591 158.328 79.5591 155.896 79.0957C152.886 78.5163 153.581 76.4307 156.939 76.4307C158.328 76.4307 159.139 75.6196 159.139 74.1133C159.139 72.2594 158.328 71.7959 154.97 71.7959C152.539 71.7959 151.149 72.2594 151.612 72.9546C152.075 73.6498 151.033 74.1133 149.412 74.1133C147.791 74.1133 146.402 73.6498 146.402 73.0705C146.402 70.4055 148.023 68.3198 149.991 68.3198C151.149 68.3198 152.191 67.7405 152.191 67.1611C152.191 66.4659 150.339 66.0025 148.139 66.0025H144.086V73.1863ZM157.981 74.1133C157.981 74.6926 156.939 75.272 155.549 75.272C154.275 75.272 153.581 74.6926 153.928 74.1133C154.275 73.4181 155.433 72.9546 156.36 72.9546C157.286 72.9546 157.981 73.4181 157.981 74.1133Z" fill="white"/>
<path d="M164.928 68.204C164.928 70.869 163.191 71.4483 162.265 69.1309C161.917 68.4357 161.686 68.7833 161.686 70.0579C161.686 71.3324 161.339 74.1133 160.875 76.0831C160.296 78.6322 160.412 79.9068 161.339 79.9068C162.033 79.9068 162.612 78.0528 162.612 75.8513C162.612 73.6498 163.191 71.7959 163.77 71.7959C164.465 71.7959 164.928 73.6498 164.928 75.8513C164.928 78.0528 165.507 79.9068 166.086 79.9068C166.781 79.9068 167.244 78.0528 167.244 75.8513C167.244 73.6498 167.707 71.7959 168.402 71.7959C168.981 71.7959 169.791 73.6498 170.254 75.8513C170.833 79.3274 171.412 79.9068 174.307 79.9068C177.317 79.9068 177.665 79.5591 177.665 75.8513C177.665 72.1435 177.433 71.7959 174.307 71.7959C169.791 71.7959 167.244 70.7531 167.244 68.8992C167.244 67.9722 166.781 66.9294 166.086 66.5818C165.507 66.2342 164.928 66.9294 164.928 68.204ZM176.507 75.8513C176.507 77.937 175.928 78.7481 174.191 78.7481C172.454 78.7481 171.875 77.937 171.875 75.8513C171.875 73.7657 172.454 72.9546 174.191 72.9546C175.928 72.9546 176.507 73.7657 176.507 75.8513Z" fill="white"/>
<path d="M364.433 68.8992C363.739 70.5214 363.623 71.7959 364.086 71.7959C364.665 71.7959 365.36 73.7657 365.591 76.0831L366.054 80.4861L366.17 76.0831C366.402 72.9546 366.865 71.7959 368.37 71.7959C370.107 71.7959 370.107 71.6801 368.486 70.2896C367.444 69.5944 366.518 68.3199 366.286 67.5088C366.054 66.6977 365.244 67.3929 364.433 68.8992Z" fill="white"/>
<path d="M249.107 69.3627C248.875 70.6373 248.991 72.0277 249.454 72.607C250.033 73.0705 250.612 75.0403 250.96 77.0101C251.423 80.2544 251.423 80.1385 251.654 76.199C251.654 73.8816 252.465 71.6801 253.275 71.4484C254.433 70.9849 254.433 70.7531 253.275 70.7531C252.465 70.6373 251.77 69.8262 251.77 68.8992C251.77 66.3501 249.802 66.8136 249.107 69.3627Z" fill="white"/>
<path d="M204.644 73.0705C205.107 74.5768 205.454 76.7783 205.454 77.8211C205.454 78.9798 206.033 79.9068 206.612 79.9068C207.307 79.9068 207.539 78.6322 207.075 77.01C206.496 74.6926 206.96 73.8816 209.044 73.0705C210.896 72.2594 211.244 71.9118 209.854 71.9118C208.812 71.7959 207.075 71.4483 205.917 70.9848C204.296 70.4055 204.065 70.7531 204.644 73.0705Z" fill="white"/>
<path d="M219.349 73.6498C219.349 77.8211 220.623 79.9067 222.939 79.9067C226.065 79.9067 225.718 81.9924 222.591 82.5717C220.623 82.9193 220.97 83.1511 223.749 83.2669C227.454 83.3828 227.454 83.3828 227.454 77.7052C227.454 72.1435 227.454 72.0276 223.402 71.5642C219.812 71.2165 219.349 71.4483 219.349 73.6498ZM225.139 75.8513C225.139 77.7052 224.444 78.748 223.402 78.748C222.475 78.748 221.665 78.2846 221.665 77.7052C221.665 77.1259 221.318 75.8513 220.97 74.8085C220.507 73.4181 220.97 72.9546 222.707 72.9546C224.56 72.9546 225.139 73.6498 225.139 75.8513Z" fill="white"/>
<path d="M237.991 72.7229C238.107 73.7657 238.57 75.9672 239.033 77.5894L239.96 80.4861L240.075 77.2418C240.191 74.9244 240.77 74.1133 242.507 74.1133C244.244 74.1133 244.823 74.9244 244.939 77.2418C245.054 80.1385 245.17 80.0226 245.865 76.4307C246.328 74.2292 246.675 72.3753 246.56 72.2594C246.56 72.1435 244.591 71.7959 242.275 71.4483C238.57 70.869 237.875 71.1007 237.991 72.7229Z" fill="white"/>
<path d="M271.455 74.5768C271.455 79.5592 272.612 80.8337 276.086 79.7909C278.865 78.9798 278.865 78.9798 276.434 78.864C274.928 78.7481 273.77 78.2846 273.77 77.7053C273.77 77.1259 273.423 75.8514 273.076 74.9244C272.612 73.6498 273.307 73.0705 275.739 72.7229L278.981 72.3753L275.276 71.6801C271.686 71.1007 271.455 71.2166 271.455 74.5768Z" fill="white"/>
<path d="M289.981 74.9244C289.981 76.8942 290.56 78.9798 291.139 79.3274C291.834 79.7909 292.297 78.7481 292.297 77.1259C292.297 73.0705 295.423 73.1864 296.118 77.2418L296.581 80.4861L296.813 77.2418C296.813 75.272 297.623 74.1133 298.665 74.1133C299.707 74.1133 300.402 75.272 300.518 77.2418L300.634 80.4861L301.56 77.5894C303.181 72.3753 302.949 72.0277 296.349 71.5642L289.981 71.2166V74.9244Z" fill="white"/>
<path d="M321.244 71.7959C319.738 72.7229 319.854 72.9546 321.591 72.9546C322.749 72.9546 323.328 73.534 322.981 74.1133C322.517 74.8085 321.244 75.0403 319.97 74.6926C318.233 74.1133 317.77 74.5768 317.77 76.8942C317.77 79.5591 318.233 79.9068 321.938 79.9068C325.296 79.9068 325.991 79.5591 325.412 78.0528C325.065 77.01 324.717 74.9244 324.717 73.4181C324.717 70.4055 323.907 70.0579 321.244 71.7959ZM323.559 77.5894C323.559 78.1687 322.865 78.7481 321.938 78.7481C321.012 78.7481 319.854 78.1687 319.507 77.5894C319.159 76.8942 319.854 76.4307 321.128 76.4307C322.517 76.4307 323.559 76.8942 323.559 77.5894Z" fill="white"/>
<path d="M334.444 74.4609C334.791 76.3148 335.139 78.2846 335.139 78.8639C335.139 79.3274 336.528 79.9067 338.381 80.1385L341.507 80.6019L338.612 81.8765L335.718 83.2669H338.96C341.97 83.3828 342.086 83.1511 342.086 77.7052C342.086 72.0276 342.086 72.0276 337.918 71.5641C333.865 71.1007 333.749 71.2165 334.444 74.4609ZM340.697 75.5037C340.465 77.01 339.539 78.1687 338.612 78.1687C337.686 78.1687 336.76 77.01 336.528 75.5037C336.181 73.5339 336.76 72.9546 338.612 72.9546C340.465 72.9546 341.044 73.5339 340.697 75.5037Z" fill="white"/>
<path d="M353.317 71.4483C352.623 72.1435 354.012 79.9068 354.823 79.9068C355.286 79.9068 355.402 78.6322 355.17 77.1259C354.707 75.1561 355.17 74.2292 357.023 73.7657C359.107 73.3022 359.454 73.6498 359.454 76.6624C359.454 78.6322 359.917 79.7909 360.612 79.3274C361.307 78.9798 361.77 77.1259 361.77 75.3879C361.77 72.4911 361.307 72.0277 357.717 71.5642C355.402 71.3324 353.433 71.2166 353.317 71.4483Z" fill="white"/>
<path d="M184.612 78.8639C184.612 83.1511 185.075 85.5843 185.77 85.1209C186.465 84.7732 186.928 83.3828 186.928 82.2241C186.928 80.8337 187.854 79.9067 189.591 79.675C191.56 79.4433 192.254 78.4005 192.486 75.5037C192.833 71.9118 192.718 71.7959 188.781 71.7959H184.612V78.8639ZM191.56 74.5768C191.56 74.8085 191.212 75.8513 190.865 76.8942C189.823 79.5591 186.928 79.2115 186.928 76.4307C186.928 74.9244 187.739 74.1133 189.244 74.1133C190.518 74.1133 191.56 74.345 191.56 74.5768Z" fill="white"/>
<path d="M195.033 75.8513C195.033 79.5591 195.265 79.9068 198.507 79.9068C200.475 79.9068 201.981 79.3274 201.981 78.4005C201.981 77.7052 202.328 75.8513 202.675 74.345C203.37 72.0277 203.023 71.7959 199.202 71.7959C195.265 71.7959 195.033 71.9118 195.033 75.8513ZM200.823 75.8513C200.823 79.0957 198.044 79.7909 196.886 76.8942C195.728 73.8816 196.075 72.9546 198.507 72.9546C200.244 72.9546 200.823 73.7657 200.823 75.8513Z" fill="white"/>
<path d="M229.539 75.8513C230.002 79.4433 230.465 79.9067 233.128 79.7909C235.791 79.5591 235.907 79.5591 233.475 79.0957C230.465 78.5163 231.16 76.4307 234.518 76.4307C235.907 76.4307 236.718 75.6196 236.718 74.1133C236.718 72.2594 235.907 71.7959 232.896 71.7959C229.191 71.7959 229.075 71.9118 229.539 75.8513ZM235.56 74.1133C235.56 74.6926 234.518 75.272 233.244 75.272C231.97 75.272 230.928 74.6926 230.928 74.1133C230.928 73.4181 231.97 72.9546 233.244 72.9546C234.518 72.9546 235.56 73.4181 235.56 74.1133Z" fill="white"/>
<path d="M256.402 75.8513C256.402 79.5591 256.749 79.9067 259.644 79.7909C261.497 79.675 261.96 79.4433 260.802 79.0956C257.676 78.2846 258.254 76.4307 261.612 76.4307C263.697 76.4307 264.507 75.8513 264.507 74.1133C264.507 72.2594 263.697 71.7959 260.454 71.7959C256.633 71.7959 256.402 72.0276 256.402 75.8513ZM262.191 74.1133C262.191 74.6926 261.381 75.272 260.454 75.272C259.528 75.272 258.718 74.6926 258.718 74.1133C258.718 73.4181 259.528 72.9546 260.454 72.9546C261.381 72.9546 262.191 73.4181 262.191 74.1133Z" fill="white"/>
<path d="M280.718 75.8513C280.718 79.5591 280.949 79.9068 284.191 79.9068C287.434 79.9068 287.665 79.5591 287.665 75.8513C287.665 72.1435 287.434 71.7959 284.191 71.7959C280.949 71.7959 280.718 72.1435 280.718 75.8513ZM286.507 75.8513C286.507 77.937 285.928 78.7481 284.191 78.7481C282.455 78.7481 281.876 77.937 281.876 75.8513C281.876 73.7657 282.455 72.9546 284.191 72.9546C285.928 72.9546 286.507 73.7657 286.507 75.8513Z" fill="white"/>
<path d="M303.875 75.8513C303.875 79.5591 304.107 79.9068 307.349 79.9068C310.012 79.9068 310.823 79.3274 310.823 77.7052C310.823 76.4307 311.17 74.6926 311.518 73.6498C312.097 72.1435 311.402 71.7959 308.044 71.7959C304.107 71.7959 303.875 71.9118 303.875 75.8513ZM309.665 75.8513C309.665 79.0957 306.886 79.7909 305.728 76.8942C304.57 73.8816 304.918 72.9546 307.349 72.9546C309.086 72.9546 309.665 73.7657 309.665 75.8513Z" fill="white"/>
<path d="M344.402 75.8513C344.402 79.5591 344.749 79.9067 347.644 79.7909C349.497 79.675 349.96 79.4433 348.802 79.0956C346.023 78.4004 346.139 76.4307 349.033 76.4307C350.539 76.4307 351.349 75.6196 351.349 74.1133C351.349 72.2594 350.539 71.7959 347.876 71.7959C344.633 71.7959 344.402 72.1435 344.402 75.8513ZM350.191 74.1133C350.191 74.6926 349.381 75.272 348.454 75.272C347.528 75.272 346.718 74.6926 346.718 74.1133C346.718 73.4181 347.528 72.9546 348.454 72.9546C349.381 72.9546 350.191 73.4181 350.191 74.1133Z" fill="white"/>
<path d="M371.033 73.1863C371.149 77.8211 372.538 79.9067 375.549 79.7909C378.212 79.5591 378.328 79.5591 376.012 79.0956C372.423 78.4004 372.654 76.4307 376.244 76.4307C378.328 76.4307 379.138 75.8513 379.138 74.1133C379.138 72.2594 378.328 71.7959 375.086 71.7959C372.654 71.7959 371.033 72.3752 371.033 73.1863ZM376.823 74.1133C376.823 74.6926 376.012 75.272 375.086 75.272C374.16 75.272 373.349 74.6926 373.349 74.1133C373.349 73.4181 374.16 72.9546 375.086 72.9546C376.012 72.9546 376.823 73.4181 376.823 74.1133Z" fill="white"/>
</svg>
