<svg width="526" height="189" viewBox="0 0 526 189" fill="none" xmlns="http://www.w3.org/2000/svg">
<path d="M43.9916 101.646L0 92.8508L28.5945 76.3596C38.2727 43.8169 68.5536 30.5507 82.4843 27.9854L79.1849 46.6754C47.5109 54.5912 42.5252 86.6208 43.9916 101.646Z" fill="#0F143B"/>
<path d="M86.8833 44.4766L96.7814 0.5L112.178 29.0848C147.372 38.7596 159.103 69.7632 160.569 84.0556L141.873 79.6579C136.594 50.6333 103.014 44.1101 86.8833 44.4766Z" fill="#0F143B"/>
<path d="M108.879 142.325C143.193 130.891 146.639 101.646 144.073 88.4532L188.064 97.2486L159.47 112.64C151.551 144.304 119.511 158.083 104.48 161.015L108.879 142.325Z" fill="#2492CD"/>
<path d="M92.3823 188.5L100.081 144.523C66.6472 148.921 50.2237 122.902 46.1911 109.342L26.3949 106.044C30.7941 141.225 61.9548 157.35 76.9853 161.015L92.3823 188.5Z" fill="#2492CD"/>
<path d="M105.58 131.33C96.7815 132.43 93.4821 132.43 93.4821 132.43C93.4821 132.43 87.9831 132.43 81.3844 131.33" stroke="#2492CD" stroke-width="0.44"/>
<path d="M133.075 96.1492C131.975 101.646 112.714 106.044 92.3823 106.044C71.486 106.044 56.0892 101.646 53.8896 96.1492" stroke="#2492CD" stroke-width="1.76" stroke-linecap="round"/>
<path d="M130.875 104.944C127.575 110.442 113.814 113.74 93.482 113.74C72.5857 113.74 57.1889 110.442 56.0891 104.944" stroke="#2492CD" stroke-width="1.54" stroke-linecap="round"/>
<path d="M128.676 112.64C123.177 117.038 114.914 120.336 94.582 120.336C73.6857 120.336 62.6881 118.137 58.2889 112.64" stroke="#2492CD" stroke-width="1.54" stroke-linecap="round"/>
<path d="M122.077 120.336C114.378 123.635 109.979 125.833 93.4821 125.833C80.2846 125.833 71.4863 124.734 64.8876 120.336" stroke="#2492CD" stroke-width="1.32" stroke-linecap="round"/>
<path d="M116.578 125.833C108.879 129.132 104.48 129.132 94.5819 129.132C83.584 129.132 79.1849 129.132 71.4863 125.833" stroke="#2492CD" stroke-width="1.1" stroke-linecap="round"/>
<path d="M100.081 57.6697C109.099 59.8997 104.978 63.1668 93.482 63.1668C81.3845 63.1668 77.9868 59.7857 85.7835 57.6697" stroke="#131737" stroke-width="1.1" stroke-linecap="round"/>
<path d="M109.979 60.9678C119.877 64.266 104.763 67.5643 93.2677 67.5643C81.1702 67.5643 68.187 64.266 75.8856 60.9678" stroke="#131737" stroke-width="1.32" stroke-linecap="round"/>
<path d="M118.778 65.3655C124.277 70.8626 105.282 74.1608 93.4827 74.1608C81.3852 74.1608 61.5888 70.8626 68.1876 65.3655" stroke="#131737" stroke-width="1.54" stroke-linecap="round"/>
<path d="M125.377 71.962C125.377 78.5585 108.88 80.7574 92.3827 80.7574C75.886 80.7574 60.4891 77.4591 61.5888 71.962" stroke="#131737" stroke-width="1.54" stroke-linecap="round"/>
<path d="M129.775 79.658C129.775 86.2545 112.714 89.5527 92.3823 89.5527C71.486 89.5527 56.0894 85.155 57.1891 79.658" stroke="#131737" stroke-width="1.76" stroke-linecap="round"/>
<path d="M131.975 87.3539C130.875 93.9504 112.714 97.2486 92.3825 97.2486C71.4863 97.2486 54.9897 93.9504 54.9897 88.4533" stroke="#131737" stroke-width="1.76" stroke-linecap="round"/>
<path d="M90.1827 58.7686C91.2825 59.5016 95.6819 59.8684 96.7816 58.7689C98.4438 57.1072 87.7436 57.1436 90.1827 58.7686Z" stroke="#131737" stroke-width="1.1"/>
<path d="M209.836 121.272V70.947H237.921V77.8907H218.017V90.5063H237.921V97.6907H218.017V113.95H237.921V121.272H209.836ZM247.305 121.272V70.947H255.486V113.95H273.774V121.272H247.305ZM280.442 121.272V70.947H308.527V77.8907H288.624V90.5063H308.527V97.6907H288.624V113.95H308.527V121.272H280.442ZM333.896 123.231L311.449 70.947H319.939L331.214 97.7595C331.879 99.3178 332.429 100.762 332.864 102.091C333.3 103.397 333.643 104.646 333.896 105.838C334.193 104.577 334.572 103.271 335.03 101.919C335.488 100.567 336.027 99.1803 336.646 97.7595L347.886 70.947H356.342L333.896 123.231ZM361.43 121.272V70.947H389.514V77.8907H369.611V90.5063H389.514V97.6907H369.611V113.95H389.514V121.272H361.43ZM398.899 121.272V68.9532L430.867 99.7188C431.738 100.59 432.621 101.518 433.514 102.503C434.408 103.489 435.348 104.6 436.333 105.838V70.947H443.896V123.231L411.274 91.9157C410.403 91.0678 409.555 90.1741 408.73 89.2345C407.928 88.2949 407.16 87.3095 406.427 86.2782V121.272H398.899ZM476.311 112.128C477.159 113.137 477.973 113.87 478.752 114.328C479.531 114.787 480.356 115.016 481.227 115.016C482.831 115.016 483.954 114.489 484.596 113.434C485.26 112.38 485.592 110.421 485.592 107.556V70.947H493.705V110.203C493.705 114.466 492.765 117.605 490.886 119.622C489.007 121.616 486.074 122.613 482.086 122.613C479.886 122.613 477.892 122.189 476.105 121.341C474.34 120.493 472.667 119.175 471.086 117.388L476.311 112.128ZM511.339 93.8751C512.141 91.7209 513.196 90.1282 514.502 89.097C515.831 88.0657 517.469 87.5501 519.417 87.5501C520.472 87.5501 521.503 87.6761 522.511 87.9282C523.542 88.1803 524.551 88.547 525.536 89.0282L522.855 95.3532C522.213 94.8949 521.514 94.5626 520.758 94.3563C520.025 94.1272 519.2 94.0126 518.283 94.0126C515.808 94.0126 514.032 95.0095 512.955 97.0032C511.878 98.9741 511.339 102.297 511.339 106.972V121.272H503.88V88.6157H511.339V93.8751Z" fill="#131737"/>
</svg>
